<?xml version="1.0" encoding="utf-8"?>
<!-- Generator: Adobe Illustrator 20.0.0, SVG Export Plug-In . SVG Version: 6.00 Build 0)  -->
<svg version="1.1" id="Calque_1" xmlns="http://www.w3.org/2000/svg" xmlns:xlink="http://www.w3.org/1999/xlink" x="0px" y="0px"
	 viewBox="0 0 1280 530.4" style="enable-background:new 0 0 1280 530.4;" xml:space="preserve">
<style type="text/css">
	.st0{fill:none;}
	.st1{clip-path:url(#SVGID_2_);}
	.st2{fill:#3A3A3A;}
</style>
<g>
	<rect x="-0.8" class="st0" width="1281.6" height="530.4"/>
</g>
<g>
	<defs>
		<rect id="SVGID_1_" x="-0.8" width="1281.6" height="530.4"/>
	</defs>
	<clipPath id="SVGID_2_">
		<use xlink:href="#SVGID_1_"  style="overflow:visible;"/>
	</clipPath>
	<g class="st1">
		<g>
			<g>
				<path class="st2" d="M642,807.2c-75.7,0-137.3-61.6-137.3-137.3S566.3,532.5,642,532.5s137.3,61.6,137.3,137.3
					S717.7,807.2,642,807.2z M642,536.5c-73.5,0-133.3,59.8-133.3,133.3S568.5,803.2,642,803.2s133.3-59.8,133.3-133.3
					S715.5,536.5,642,536.5z"/>
			</g>
			<g>
				<path class="st2" d="M641.9,806.1c-70.7,0-130.6-54.8-135.8-126.4c-5.4-74.9,51.1-140.3,126-145.7c36.3-2.6,71.4,9,99,32.8
					c27.5,23.8,44.1,56.9,46.8,93.2l0,0c5.4,74.9-51.1,140.3-126,145.7C648.5,806,645.2,806.1,641.9,806.1z M642.2,537.6
					c-3.2,0-6.5,0.1-9.8,0.4c-72.7,5.3-127.6,68.7-122.4,141.5c5.3,72.7,68.8,127.6,141.5,122.4c72.7-5.3,127.6-68.7,122.4-141.5
					c-2.6-35.2-18.7-67.4-45.4-90.5C704.3,548.8,673.9,537.6,642.2,537.6z"/>
			</g>
			<g>
				<path class="st2" d="M641.9,805.7c-66.3,0-124.5-48.7-134.4-116.2c-10.9-74.1,40.6-143.3,114.7-154.1
					c74.1-10.9,143.3,40.6,154.1,114.7l0,0c10.9,74.1-40.6,143.3-114.7,154.1C655.1,805.3,648.4,805.7,641.9,805.7z M642.1,537.9
					c-6.3,0-12.8,0.5-19.2,1.4c-72,10.5-122,77.7-111.4,149.7c10.5,72,77.7,122,149.7,111.4c72-10.5,122-77.7,111.4-149.7
					C763,585.2,706.4,537.9,642.1,537.9z"/>
			</g>
			<g>
				<path class="st2" d="M641.7,806.1c-25.6,0-50.7-7.3-72.9-21.4c-30.7-19.5-51.9-49.9-59.8-85.4c-7.9-35.5-1.5-72,18.1-102.7
					s49.9-51.9,85.4-59.8c35.5-7.9,72-1.5,102.7,18.1c30.7,19.5,51.9,49.9,59.8,85.4c7.9,35.5,1.5,72-18.1,102.7
					c-19.5,30.7-49.9,51.9-85.4,59.8C661.6,805,651.6,806.1,641.7,806.1z M642.3,537.5c-9.6,0-19.3,1.1-29,3.2
					c-34.5,7.7-64,28.3-82.9,58.1s-25.2,65.2-17.5,99.8c7.7,34.5,28.3,64,58.1,82.9c29.8,19,65.2,25.2,99.8,17.5
					c34.5-7.7,64-28.3,82.9-58.1c19-29.8,25.2-65.2,17.5-99.8s-28.3-64-58.1-82.9C691.6,544.5,667.1,537.5,642.3,537.5z"/>
			</g>
			<g>
				<path class="st2" d="M641.8,807.2c-22.4,0-44.7-5.6-65-16.5c-32.3-17.4-55.8-46.3-66.4-81.5c-10.5-35.1-6.7-72.3,10.7-104.5
					c17.4-32.3,46.3-55.8,81.5-66.4c72.5-21.7,149.2,19.6,170.9,92.1l0,0c10.5,35.1,6.7,72.3-10.7,104.5
					c-17.4,32.3-46.3,55.8-81.5,66.4C668.3,805.3,655,807.2,641.8,807.2z M641.9,536.4c-12.6,0-25.5,1.8-38.2,5.6
					c-34.1,10.2-62.3,33.1-79.2,64.5s-20.6,67.5-10.4,101.6c10.2,34.1,33.1,62.3,64.5,79.2c31.4,16.9,67.5,20.6,101.6,10.4
					c34.1-10.2,62.3-33.1,79.2-64.5s20.6-67.5,10.4-101.6C752.5,573.8,699.4,536.4,641.9,536.4z"/>
			</g>
			<g>
				<path class="st2" d="M642.2,808.9c-56.2,0-109.2-34.3-130.2-89.9c-13.1-34.7-12-72.5,3.3-106.4s42.8-59.7,77.5-72.9
					c71.7-27.1,152.1,9.1,179.3,80.8c27.1,71.7-9.1,152.1-80.8,179.3C675.1,806,658.5,808.9,642.2,808.9z M641.9,534.6
					c-15.9,0-32,2.8-47.7,8.8c-33.8,12.8-60.6,38-75.4,70.9c-14.9,32.9-16,69.7-3.2,103.5c26.4,69.7,104.6,105,174.3,78.6
					c69.7-26.4,105-104.6,78.6-174.3C748,567.9,696.5,534.6,641.9,534.6z"/>
			</g>
			<g>
				<path class="st2" d="M642.1,811.4c-16.6,0-33.2-3-49.3-8.9c-35.4-13.1-63.6-39.3-79.4-73.6c-15.8-34.3-17.2-72.8-4.1-108.2
					c13.1-35.4,39.3-63.6,73.6-79.4c70.9-32.5,155.1-1.3,187.6,69.6c32.5,70.9,1.3,155.1-69.6,187.6
					C682.2,807.1,662.2,811.4,642.1,811.4z M641.8,532.2c-19.2,0-38.7,4-57.2,12.5c-33.4,15.3-58.9,42.8-71.7,77.3
					c-12.8,34.5-11.4,71.9,4,105.3c15.3,33.4,42.8,58.9,77.3,71.7c34.5,12.8,71.9,11.4,105.3-4c69-31.7,99.4-113.6,67.7-182.6
					C744,561.9,694,532.2,641.8,532.2z"/>
			</g>
			<g>
				<path class="st2" d="M642.2,814.4c-13.8,0-27.8-2-41.4-6.1c-37-11-67.5-35.8-85.9-69.7s-22.5-73-11.4-110
					c11-37,35.8-67.5,69.7-85.9c33.9-18.4,73-22.5,110-11.4c37,11,67.5,35.8,85.9,69.7c18.4,33.9,22.5,73,11.4,110
					c-11,37-35.8,67.5-69.7,85.9C689.4,808.5,665.9,814.4,642.2,814.4z M641.8,529c-23.1,0-46,5.7-66.9,17.1
					c-33.1,17.9-57.2,47.6-67.9,83.7c-10.7,36-6.8,74.1,11.2,107.2c17.9,33.1,47.6,57.2,83.7,67.9c36,10.7,74.1,6.8,107.2-11.2
					c33.1-17.9,57.2-47.6,67.9-83.7c10.7-36,6.8-74.1-11.2-107.2c-17.9-33.1-47.6-57.2-83.7-67.9C668.8,530.9,655.3,529,641.8,529z"
					/>
			</g>
			<g>
				<path class="st2" d="M642.2,818c-49.4,0-97.8-24.6-125.9-69.5c-43.4-69.3-22.3-160.9,47-204.2c33.6-21,73.3-27.7,111.9-18.8
					c38.6,8.9,71.4,32.2,92.4,65.8c43.4,69.3,22.3,160.9-47,204.2C696.2,810.7,669.1,818,642.2,818z M641.7,525.3
					c-26.8,0-53.1,7.5-76.4,22.1c-67.5,42.3-88.1,131.6-45.8,199.1c42.3,67.5,131.6,88.1,199.1,45.8
					c67.5-42.3,88.1-131.6,45.8-199.1C744,560.5,712,537.7,674.4,529C663.5,526.5,652.6,525.3,641.7,525.3z"/>
			</g>
			<g>
				<path class="st2" d="M642.2,822.2c-47.7,0-94.6-22.2-124.3-63.9c-48.8-68.4-32.7-163.8,35.7-212.5
					C622,497,717.4,513,766.1,581.4c48.8,68.4,32.7,163.8-35.7,212.5C703.7,813,672.8,822.2,642.2,822.2z M641.8,521.2
					c-29.9,0-60,8.9-86.1,27.5c-66.8,47.6-82.4,140.6-34.8,207.4c47.6,66.8,140.6,82.4,207.4,34.8c66.8-47.6,82.4-140.6,34.8-207.4
					C734.2,542.9,688.3,521.2,641.8,521.2z"/>
			</g>
			<g>
				<path class="st2" d="M642.2,826.9c-46.1,0-91.8-20.1-122.8-58.8c-54.1-67.6-43.2-166.7,24.4-220.8
					c67.6-54.1,166.7-43.2,220.8,24.4c26.2,32.8,38.1,73.8,33.5,115.5c-4.6,41.7-25.2,79.1-58,105.4
					C711.3,815.6,676.6,826.9,642.2,826.9z M641.7,516.3c-34.7,0-68.1,11.7-95.6,33.7c-66.1,52.9-76.8,149.7-23.9,215.7
					c52.9,66.1,149.7,76.8,215.7,23.9c32-25.6,52.1-62.2,56.6-102.9c4.5-40.7-7.1-80.8-32.7-112.8c-25.6-32-62.2-52.1-102.9-56.6
					C653.1,516.7,647.4,516.3,641.7,516.3z"/>
			</g>
			<g>
				<path class="st2" d="M642.1,832c-44.7,0-89.2-18.3-121.2-54.2c-28.8-32.4-43.3-74-40.9-117.3s21.7-83,54-111.8
					c32.4-28.8,74-43.3,117.3-40.9c43.3,2.5,83,21.7,111.8,54c28.8,32.4,43.3,74,40.9,117.3c-2.5,43.3-21.7,83-54,111.8
					C719.1,818.5,680.5,832,642.1,832z M641.8,511.2c-38.9,0-76.1,14.1-105.4,40.2c-31.6,28.2-50.4,67-52.8,109.3
					c-2.4,42.3,11.8,83,40,114.7c31.3,35.1,74.8,53,118.6,53c37.6,0,75.3-13.2,105.5-40.1c31.6-28.2,50.4-67,52.8-109.3
					c2.4-42.3-11.8-83-40-114.7l0,0c-28.2-31.6-67-50.4-109.3-52.8C648,511.2,644.9,511.2,641.8,511.2z"/>
			</g>
			<g>
				<path class="st2" d="M642,837.6c-43.5,0-86.9-16.7-119.7-50.1c-31.4-32-48.6-74.3-48.2-119.1c0.4-44.8,18.2-86.8,50.1-118.3
					c32-31.4,74.2-48.6,119.1-48.2c44.8,0.4,86.8,18.2,118.3,50.1c64.9,66,64,172.5-1.9,237.4C727.1,821.6,684.5,837.6,642,837.6z
					 M642,505.5c-43.4,0-84.2,16.7-115.2,47.2c-31.3,30.8-48.7,71.9-49.1,115.8c-0.4,43.9,16.4,85.3,47.2,116.6
					c63.5,64.6,167.8,65.4,232.4,1.9c64.6-63.5,65.4-167.8,1.9-232.4c-30.8-31.3-71.9-48.7-115.8-49.1
					C642.9,505.5,642.4,505.5,642,505.5z"/>
			</g>
			<g>
				<path class="st2" d="M641.8,843.7c-43.9,0-85.6-16.3-118-46.4c-34-31.6-53.8-74.5-55.5-120.9c-1.8-46.4,14.7-90.7,46.2-124.8
					c65.2-70.3,175.4-74.5,245.7-9.3c34,31.6,53.8,74.5,55.5,120.9c1.8,46.4-14.7,90.7-46.2,124.8s-74.5,53.8-120.9,55.5
					C646.3,843.6,644.1,843.7,641.8,843.7z M642.1,499.6c-45.8,0-91.4,18.3-124.9,54.4c-30.9,33.4-47,76.8-45.3,122.2
					s21,87.5,54.4,118.5c33.4,30.9,76.8,47,122.2,45.3c45.5-1.7,87.5-21,118.5-54.4c30.9-33.4,47-76.8,45.3-122.2
					c-1.7-45.5-21-87.5-54.4-118.5C725.1,514.6,683.5,499.6,642.1,499.6z"/>
			</g>
			<g>
				<path class="st2" d="M641.7,850c-42.7,0-83.5-15-116.4-42.9c-36.7-31.2-59-74.8-62.8-122.7c-3.9-48,11.2-94.6,42.3-131.2
					c31.2-36.7,74.8-59,122.7-62.8c48-3.9,94.6,11.2,131.2,42.3c36.7,31.2,59,74.8,62.8,122.7s-11.2,94.6-42.3,131.2
					c-31.2,36.7-74.8,59-122.7,62.8C651.6,849.8,646.6,850,641.7,850z M642.3,493.2c-4.8,0-9.7,0.2-14.5,0.6
					c-47,3.8-89.8,25.7-120.3,61.6s-45.3,81.6-41.5,128.7c3.8,47,25.7,89.8,61.6,120.3c35.9,30.6,81.6,45.3,128.7,41.5
					c47-3.8,89.8-25.7,120.3-61.6c30.6-35.9,45.3-81.6,41.5-128.7c-3.8-47-25.7-89.8-61.6-120.3
					C724.2,507.9,684.1,493.2,642.3,493.2z"/>
			</g>
			<g>
				<path class="st2" d="M641.6,856.6c-41.6,0-81.7-13.8-114.9-39.8c-39.3-30.8-64.2-75-70.2-124.5c-6-49.5,7.7-98.4,38.4-137.7
					s75-64.2,124.5-70.2c49.5-6,98.4,7.7,137.7,38.4c81,63.5,95.3,181.2,31.7,262.2c-30.8,39.3-75,64.2-124.5,70.2
					C656.8,856.2,649.2,856.6,641.6,856.6z M642.4,486.5c-7.4,0-14.9,0.4-22.4,1.4c-48.6,5.9-92,30.3-122.2,68.9
					s-43.6,86.5-37.7,135.1c5.9,48.6,30.3,92,68.9,122.2c38.5,30.2,86.5,43.6,135.1,37.7c48.6-5.9,92-30.3,122.2-68.9
					c30.2-38.5,43.6-86.5,37.7-135.1c-5.9-48.6-30.3-92-68.9-122.2C722.5,500,683.1,486.5,642.4,486.5z"/>
			</g>
			<g>
				<path class="st2" d="M641.6,863.5c-40.5,0-79.9-12.7-113.4-37c-41.9-30.4-69.4-75.3-77.5-126.3c-8.1-51.1,4.2-102.3,34.6-144.1
					c62.7-86.4,184.1-105.6,270.4-42.9c41.9,30.4,69.4,75.3,77.5,126.3c8.1,51.1-4.2,102.3-34.6,144.1
					c-30.4,41.9-75.3,69.4-126.3,77.5C662.1,862.7,651.8,863.5,641.6,863.5z M642.3,479.7c-58.9,0-117,27.2-154.2,78.4
					c-29.9,41.1-41.9,91.4-33.9,141.6c8,50.2,35,94.3,76.1,124.1c41.1,29.9,91.4,41.9,141.6,33.9c50.2-8,94.3-35,124.1-76.1
					s41.9-91.4,33.9-141.6c-8-50.2-35-94.3-76.1-124.1C720.1,491.5,681,479.7,642.3,479.7z"/>
			</g>
			<g>
				<path class="st2" d="M641.7,870.5c-38.6,0-77.6-11.1-112-34.3c-91.8-61.9-116-186.9-54.1-278.7c61.9-91.8,186.9-116,278.7-54.1
					c91.8,61.9,116,186.9,54.1,278.7C769.7,839.5,706.2,870.5,641.7,870.5z M642.3,472.5c-63.5,0-125.8,30.5-163.9,86.9
					c-60.9,90.2-37,213.1,53.2,274c33.8,22.8,72.1,33.7,110.1,33.7c63.5,0,125.8-30.5,163.9-86.9c60.9-90.2,37-213.1-53.2-274
					C718.6,483.4,680.3,472.5,642.3,472.5z"/>
			</g>
			<g>
				<path class="st2" d="M641.6,878c-38.8,0-76.8-10.9-110.4-32c-97.1-61.1-126.4-189.8-65.3-287c61.1-97.1,189.8-126.4,287-65.3
					c97.1,61.1,126.4,189.8,65.3,287c-29.6,47-75.8,79.7-130,92.1C672.7,876.3,657.1,878,641.6,878z M642.3,465.1
					c-68.1,0-134.8,33.9-173.6,95.6c-60.1,95.6-31.3,222.2,64.2,282.3c33.1,20.8,70.5,31.5,108.7,31.5c15.2,0,30.6-1.7,45.8-5.2
					c53.3-12.1,98.7-44.3,127.9-90.6c60.1-95.6,31.3-222.2-64.2-282.3C717.3,475.3,679.6,465.1,642.3,465.1z"/>
			</g>
			<g>
				<path class="st2" d="M641.6,885.6c-38,0-75.4-10.1-109-29.9c-49.6-29.2-84.9-76-99.4-131.8c-14.4-55.8-6.3-113.8,22.9-163.4
					c29.2-49.6,76-84.9,131.8-99.4c55.8-14.4,113.8-6.3,163.4,22.9l0,0c49.6,29.2,84.9,76,99.4,131.8
					c14.4,55.8,6.3,113.8-22.9,163.4s-76,84.9-131.8,99.4C678,883.3,659.8,885.6,641.6,885.6z M642.4,457.6
					c-72.8,0-143.8,37.4-183.3,104.6c-28.8,48.9-36.8,106-22.6,160.9c14.2,54.9,49,101,97.8,129.7c48.9,28.8,106,36.8,160.9,22.6
					c54.9-14.2,101-49,129.7-97.9c59.4-100.9,25.6-231.3-75.3-290.7C716,467,678.9,457.6,642.4,457.6z"/>
			</g>
			<g>
				<path class="st2" d="M641.7,893.3c-37.2,0-74.1-9.4-107.6-27.9c-52.2-28.8-90.1-76.3-106.7-133.6c-16.6-57.3-9.8-117.6,19-169.9
					c28.8-52.2,76.3-90.1,133.6-106.7c57.3-16.6,117.6-9.8,169.9,19c52.2,28.8,90.1,76.3,106.7,133.6c16.6,57.3,9.8,117.6-19,169.9
					C808.7,830,761.3,867.9,704,884.4C683.4,890.4,662.5,893.3,641.7,893.3z M642.3,449.7c-20.5,0-41.1,2.9-61.4,8.7
					c-56.5,16.3-103.2,53.6-131.6,105.1c-28.4,51.5-35.1,110.9-18.8,167.4c16.3,56.5,53.6,103.2,105.1,131.6
					c33,18.2,69.3,27.5,106,27.5c20.5,0,41.1-2.9,61.4-8.7c56.5-16.3,103.2-53.6,131.6-105.1c28.4-51.5,35.1-110.9,18.8-167.4
					c-16.3-56.5-53.6-103.2-105.1-131.6C715.3,458.9,679,449.7,642.3,449.7z"/>
			</g>
			<g>
				<path class="st2" d="M641.7,901.2c-36.6,0-72.8-8.8-106.2-26.1c-54.8-28.4-95.3-76.5-114-135.4s-13.3-121.5,15.2-176.3
					s76.5-95.3,135.4-114s121.5-13.3,176.3,15.2s95.3,76.5,114,135.4c18.7,58.9,13.3,121.5-15.2,176.3s-76.5,95.3-135.4,114
					C688.8,897.6,665.2,901.2,641.7,901.2z M642.3,441.7c-23.2,0-46.4,3.6-69.1,10.8c-58.1,18.4-105.5,58.3-133.5,112.4
					s-33.3,115.8-14.9,173.9C443.1,796.8,483,844.2,537,872.2c54.1,28,115.8,33.3,173.9,14.9c58.1-18.4,105.5-58.3,133.5-112.4
					S877.7,659,859.3,601C840.9,542.9,801,495.5,747,467.4C714.1,450.4,678.3,441.7,642.3,441.7z"/>
			</g>
			<g>
				<path class="st2" d="M641.8,909.2c-35.9,0-71.6-8.2-104.8-24.4c-57.4-28-100.5-76.8-121.3-137.2C395,687.2,399,622.3,427,564.8
					c28-57.4,76.8-100.5,137.2-121.3c60.4-20.8,125.3-16.8,182.8,11.3c57.4,28,100.5,76.8,121.3,137.2S885,717.4,857,774.8
					c-28,57.4-76.8,100.5-137.2,121.3C694.3,904.9,668,909.2,641.8,909.2z M642.2,433.7c-25.8,0-51.8,4.3-76.9,12.9
					c-59.6,20.5-107.7,63-135.4,119.6s-31.6,120.7-11.1,180.3c20.5,59.6,63,107.7,119.6,135.4c56.7,27.7,120.7,31.6,180.3,11.1
					c59.6-20.5,107.7-63,135.4-119.6c27.7-56.7,31.6-120.7,11.1-180.3c-20.5-59.6-63-107.7-119.6-135.4
					C712.8,441.7,677.6,433.7,642.2,433.7z"/>
			</g>
			<g>
				<path class="st2" d="M641.9,917.4c-35.3,0-70.4-7.6-103.4-22.8c-60-27.7-105.7-77-128.5-139s-20.2-129.2,7.4-189.2
					c27.7-60,77-105.7,139-128.5c62-22.9,129.2-20.2,189.2,7.4c60,27.7,105.7,77,128.5,139c22.9,62,20.2,129.2-7.4,189.2
					s-77,105.7-139,128.5C699.7,912.2,670.8,917.4,641.9,917.4z M642.1,425.5c-28.5,0-57.1,5.1-84.7,15.2
					c-61.2,22.6-109.9,67.6-137.3,126.9s-29.9,125.6-7.3,186.8c22.6,61.2,67.6,109.9,126.9,137.3C599,919,665.3,921.6,726.5,899
					c61.2-22.6,109.9-67.6,137.3-126.9c27.3-59.2,29.9-125.6,7.3-186.8S803.5,475.3,744.2,448C711.7,433,677,425.5,642.1,425.5z"/>
			</g>
			<g>
				<path class="st2" d="M641.9,925.6c-34.7,0-69.3-7.1-102-21.4c-62.6-27.3-110.8-77.3-135.8-140.9c-25-63.6-23.7-133,3.6-195.6
					c27.3-62.6,77.3-110.8,140.9-135.8c63.6-25,133-23.7,195.6,3.6c62.6,27.3,110.8,77.3,135.8,140.9s23.7,133-3.6,195.6
					c-27.3,62.6-77.3,110.8-140.9,135.8C705.2,919.7,673.6,925.6,641.9,925.6z M642.1,417.2c-31.2,0-62.5,5.9-92.4,17.6
					c-62.8,24.7-112.2,72.3-139.1,134.2c-26.9,61.8-28.2,130.5-3.5,193.2c24.7,62.8,72.3,112.2,134.2,139.1
					c61.8,26.9,130.5,28.2,193.2,3.5c62.8-24.7,112.2-72.3,139.1-134.2c26.9-61.8,28.2-130.5,3.5-193.2
					c-24.7-62.8-72.3-112.2-134.2-139.1C710.5,424.2,676.3,417.2,642.1,417.2z"/>
			</g>
			<g>
				<path class="st2" d="M642,934c-34.1,0-68.2-6.7-100.7-20.1c-65.2-26.9-116-77.6-143.1-142.7c-27.1-65.1-27.2-136.9-0.3-202.1
					c26.9-65.2,77.6-116,142.7-143.1s136.9-27.2,202.1-0.3c65.2,26.9,116,77.6,143.1,142.7c27.1,65.1,27.2,136.9,0.3,202.1
					c-26.9,65.2-77.6,116-142.7,143.1C710.7,927.2,676.4,934,642,934z M642,408.8c-34,0-67.9,6.7-100.2,20.2
					c-64.4,26.8-114.4,77-141,141.4c-26.6,64.4-26.5,135.4,0.3,199.7c26.8,64.4,77,114.4,141.4,141c64.4,26.6,135.4,26.5,199.7-0.3
					s114.4-77,141-141.4s26.5-135.4-0.3-199.7c-26.8-64.4-77-114.4-141.4-141C709.4,415.4,675.7,408.8,642,408.8z"/>
			</g>
			<g>
				<path class="st2" d="M642.1,942.5c-33.5,0-67.1-6.3-99.3-18.9c-67.8-26.5-121.2-77.8-150.4-144.5
					c-29.2-66.7-30.7-140.7-4.2-208.5c26.5-67.8,77.8-121.2,144.5-150.4c66.7-29.2,140.7-30.7,208.5-4.2
					c67.8,26.5,121.2,77.8,150.4,144.5c29.2,66.7,30.7,140.7,4.2,208.5S818,890.3,751.3,919.5C716.3,934.8,679.2,942.5,642.1,942.5z
					 M641.9,400.3c-36.7,0-73.4,7.6-108,22.8c-65.9,28.9-116.7,81.7-142.9,148.7c-26.2,67-24.7,140.2,4.1,206.2
					s81.7,116.7,148.7,142.9s140.2,24.7,206.2-4.1C816,887.8,866.7,835,892.9,768s24.7-140.2-4.1-206.2s-81.7-116.7-148.7-142.9
					C708.3,406.5,675.1,400.3,641.9,400.3z"/>
			</g>
			<g>
				<path class="st2" d="M642.1,951c-33,0-66.1-5.9-97.9-17.7c-70.4-26.1-126.4-78.1-157.7-146.3c-31.3-68.2-34.1-144.6-8-214.9
					s78.1-126.4,146.3-157.7c68.2-31.3,144.6-34.1,214.9-8c70.4,26.1,126.4,78.1,157.7,146.3c31.3,68.2,34.1,144.6,8,214.9
					C879.4,838,827.4,894,759.2,925.3C721.8,942.4,682,951,642.1,951z M641.9,391.7c-39.5,0-78.8,8.5-115.8,25.5
					c-67.5,31-118.9,86.4-144.7,156c-25.8,69.6-23,145.1,7.9,212.6c31,67.5,86.4,118.9,156,144.7s145.1,23,212.6-7.9
					c67.5-31,118.9-86.4,144.7-156c25.8-69.6,23-145.1-7.9-212.6c-31-67.5-86.4-118.9-156-144.7
					C707.2,397.5,674.5,391.7,641.9,391.7z"/>
			</g>
			<g>
				<path class="st2" d="M642.2,959.7c-32.5,0-65-5.5-96.6-16.6c-73-25.7-131.5-78.3-164.9-148.1c-33.4-69.8-37.6-148.4-11.9-221.4
					S447.2,442,517,408.6c69.8-33.4,148.4-37.6,221.4-11.9c73,25.7,131.5,78.3,164.9,148.1c33.4,69.8,37.6,148.4,11.9,221.4
					c-25.7,73-78.3,131.5-148.1,164.9C727.4,950.1,684.9,959.7,642.2,959.7z M641.8,383c-42.2,0-84.3,9.5-123.5,28.2
					c-69.1,33.1-121.1,91-146.6,163.2c-25.5,72.2-21.3,150,11.8,219.1c33.1,69.1,91,121.1,163.2,146.6
					c72.2,25.5,150,21.3,219.1-11.8c69.1-33.1,121.1-91,146.6-163.2c25.5-72.2,21.3-150-11.8-219.1c-33.1-69.1-91-121.1-163.2-146.6
					C706.2,388.5,673.9,383,641.8,383z"/>
			</g>
			<g>
				<path class="st2" d="M642.3,968.4c-31.9,0-64-5.2-95.2-15.6c-75.6-25.4-136.7-78.6-172.2-150c-35.5-71.4-41.1-152.3-15.7-227.8
					c25.4-75.6,78.6-136.7,150-172.2c71.4-35.5,152.3-41.1,227.8-15.7s136.7,78.6,172.2,150s41.1,152.3,15.7,227.8
					c-25.4,75.6-78.6,136.7-150,172.2C733,957.8,687.8,968.4,642.3,968.4z M641.7,374.3c-45,0-89.8,10.4-131.3,31.1
					c-70.6,35.2-123.4,95.7-148.5,170.5c-25.1,74.8-19.6,154.9,15.6,225.6S473.2,924.8,548,949.9c74.8,25.1,154.9,19.6,225.6-15.6
					c70.6-35.2,123.4-95.7,148.5-170.5c25.1-74.8,19.6-154.9-15.6-225.6S810.8,414.9,736,389.8C705.1,379.4,673.4,374.3,641.7,374.3
					z"/>
			</g>
			<g>
				<path class="st2" d="M642.3,977.1c-31.4,0-63-4.9-93.8-14.7c-78.1-25-141.9-78.9-179.5-151.8c-37.6-72.9-44.6-156.1-19.6-234.3
					c25-78.1,78.9-141.9,151.8-179.5c72.9-37.6,156.1-44.6,234.3-19.6c78.1,25,141.9,78.9,179.5,151.8
					c37.6,72.9,44.6,156.1,19.6,234.3c-25,78.1-78.9,141.9-151.8,179.5C738.6,965.6,690.7,977.1,642.3,977.1z M641.7,365.5
					c-47.9,0-95.4,11.4-139.1,34c-72.2,37.2-125.6,100.4-150.3,177.8c-24.7,77.4-17.8,159.8,19.4,232
					c37.2,72.2,100.4,125.6,177.8,150.3c77.4,24.7,159.8,17.8,232-19.4c72.2-37.2,125.6-100.4,150.3-177.8
					c24.7-77.4,17.8-159.8-19.4-232C875.1,458.2,812,404.8,734.6,380C704.1,370.3,672.8,365.5,641.7,365.5z"/>
			</g>
			<g>
				<path class="st2" d="M642.4,986c-30.9,0-62-4.6-92.4-13.9c-80.7-24.6-147.1-79.1-186.8-153.6c-39.7-74.5-48-160-23.4-240.7
					c24.6-80.7,79.1-147.1,153.6-186.8c74.5-39.7,159.9-48,240.7-23.4c80.7,24.6,147.1,79.1,186.8,153.6s48,160,23.4,240.7
					s-79.1,147.1-153.6,186.8C744.2,973.4,693.5,986,642.4,986z M641.6,356.6c-50.7,0-100.9,12.4-146.9,37
					c-73.8,39.3-127.9,105.1-152.2,185.1c-24.4,80-16.1,164.7,23.2,238.5c39.3,73.8,105.1,127.9,185.1,152.2
					c80,24.4,164.7,16.1,238.5-23.2C863.1,906.8,917.2,841,941.5,761c24.4-80,16.1-164.7-23.2-238.5S813.2,394.7,733.2,370.3
					C703.1,361.1,672.2,356.6,641.6,356.6z"/>
			</g>
			<g>
				<path class="st2" d="M642.5,994.8c-30.4,0-61-4.3-91.1-13c-83.3-24.2-152.2-79.4-194-155.4c-41.8-76-51.5-163.8-27.3-247.1
					c24.2-83.3,79.4-152.2,155.4-194s163.8-51.5,247.1-27.3c83.3,24.2,152.2,79.4,194,155.4c41.8,76,51.5,163.8,27.3,247.1
					c-24.2,83.3-79.4,152.2-155.4,194C749.9,981.2,696.5,994.8,642.5,994.8z M641.5,347.7c-53.5,0-106.5,13.5-154.7,40
					C411.5,429.1,356.8,497.4,332.8,580c-24,82.6-14.4,169.6,27.1,245c41.4,75.4,109.8,130.1,192.4,154.1
					c29.8,8.6,60.1,12.9,90.3,12.9c53.5,0,106.5-13.5,154.7-40c75.4-41.4,130.1-109.8,154.1-192.4c24-82.6,14.4-169.6-27.1-245
					S814.4,384.6,731.8,360.6C702.1,352,671.7,347.7,641.5,347.7z"/>
			</g>
			<g>
				<path class="st2" d="M642.5,1003.8c-29.9,0-60.1-4.1-89.7-12.3c-85.9-23.8-157.4-79.7-201.3-157.3
					c-43.9-77.6-55-167.6-31.2-253.6c23.8-85.9,79.7-157.4,157.3-201.3s167.6-55,253.6-31.2c85.9,23.8,157.4,79.7,201.3,157.3
					s55,167.6,31.2,253.6S884,916.4,806.4,960.3C755.6,989.1,699.4,1003.8,642.5,1003.8z M641.5,338.7
					c-56.4,0-112.1,14.5-162.5,43.1c-76.9,43.5-132.3,114.4-155.9,199.6s-12.6,174.5,30.9,251.4c43.5,76.9,114.4,132.3,199.6,155.9
					c29.4,8.1,59.3,12.2,88.9,12.2c56.4,0,112.1-14.5,162.5-43.1C882,914.4,937.3,843.5,961,758.3c23.6-85.2,12.6-174.5-30.9-251.4
					c-43.5-76.9-114.4-132.3-199.6-155.9C701,342.7,671.2,338.7,641.5,338.7z"/>
			</g>
			<g>
				<path class="st2" d="M642.6,1012.7c-29.4,0-59.1-3.8-88.3-11.6c-88.5-23.4-162.6-79.9-208.6-159.1s-58.4-171.5-35-260
					c23.4-88.5,79.9-162.6,159.1-208.6c79.2-46,171.5-58.4,260-35c88.5,23.4,162.6,79.9,208.6,159.1s58.4,171.5,35,260
					c-23.4,88.5-79.9,162.6-159.1,208.6C761.2,997,702.3,1012.7,642.6,1012.7z M641.4,329.7c-59.3,0-117.7,15.6-170.3,46.2
					C392.6,421.5,336.6,495,313.3,582.8s-10.9,179.4,34.7,257.9S467.2,975.3,555,998.5c29,7.7,58.4,11.5,87.6,11.5
					c59.3,0,117.7-15.6,170.3-46.2c78.5-45.6,134.6-119.1,157.8-206.9c23.2-87.8,10.9-179.4-34.7-257.9S816.8,364.4,729,341.2
					C700.1,333.5,670.6,329.7,641.4,329.7z"/>
			</g>
			<g>
				<path class="st2" d="M642.2,1021.7c-29,0-57.9-3.6-86.5-10.9c-46-11.7-88.4-32-126-60.4c-36.3-27.5-66.5-61.3-89.9-100.5
					s-38.8-81.9-45.6-126.9c-7.1-46.5-4.9-93.5,6.8-139.5c11.7-46,32-88.4,60.4-126c27.5-36.3,61.3-66.5,100.5-89.9
					c39.2-23.4,81.9-38.8,126.9-45.6c46.5-7.1,93.5-4.9,139.5,6.8c46,11.7,88.4,32,126,60.4c36.3,27.5,66.5,61.3,89.9,100.5
					c23.4,39.2,38.8,81.9,45.6,126.9c7.1,46.5,4.9,93.5-6.8,139.5c-11.7,46-32,88.4-60.4,126c-27.5,36.3-61.3,66.5-100.5,89.9
					c-39.2,23.4-81.9,38.8-126.9,45.6C677.6,1020.4,659.9,1021.7,642.2,1021.7z M641.4,320.6c-62.1,0-123.3,16.7-178.1,49.4
					c-80.1,47.7-136.8,123.8-159.7,214.2c-22.9,90.4-9.2,184.3,38.6,264.4c47.7,80.1,123.8,136.8,214.2,159.7
					c28.6,7.2,57.5,10.8,86.3,10.8c62.1,0,123.3-16.7,178.1-49.4c80.1-47.7,136.8-123.8,159.7-214.2c22.9-90.4,9.2-184.3-38.6-264.4
					C894.1,411,818,354.3,727.6,331.5C699.1,324.2,670.1,320.6,641.4,320.6z"/>
			</g>
			<g>
				<path class="st2" d="M642.2,1030.8c-28.5,0-56.9-3.4-85.1-10.2c-47.3-11.5-91-31.9-129.8-60.6c-37.5-27.8-68.9-62.1-93.3-102.1
					c-24.4-40-40.6-83.6-48.2-129.7c-7.8-47.7-6-95.8,5.5-143.2c11.5-47.3,31.8-91,60.6-129.8c27.8-37.5,62.1-68.9,102.1-93.3
					c40-24.4,83.6-40.6,129.7-48.2c47.7-7.8,95.8-6,143.2,5.5c47.3,11.5,91,31.9,129.8,60.6c37.5,27.8,68.9,62.1,93.3,102.1
					c24.4,40,40.6,83.6,48.2,129.7c7.8,47.7,6,95.8-5.5,143.2c-11.5,47.3-31.9,91-60.6,129.8c-27.8,37.5-62.1,68.9-102.1,93.3
					c-40,24.4-83.6,40.6-129.7,48.2C681,1029.2,661.6,1030.8,642.2,1030.8z M641.8,311.6c-19.2,0-38.5,1.6-57.7,4.7
					c-45.7,7.5-89,23.6-128.7,47.8c-39.7,24.2-73.8,55.4-101.4,92.6c-28.5,38.5-48.8,81.9-60.2,128.9c-11.4,47-13.2,94.8-5.4,142.1
					c7.5,45.7,23.6,89,47.8,128.7c24.2,39.7,55.4,73.8,92.6,101.4c38.5,28.5,81.9,48.8,128.9,60.2c47,11.4,94.8,13.2,142.1,5.4
					c45.7-7.5,89-23.6,128.7-47.8c39.7-24.2,73.8-55.4,101.4-92.6c28.5-38.5,48.8-81.9,60.2-128.9c11.4-47,13.2-94.8,5.4-142.1
					c-7.5-45.7-23.6-89-47.8-128.7s-55.4-73.8-92.6-101.4c-38.5-28.5-81.9-48.8-128.9-60.2C698.3,315,670,311.6,641.8,311.6z"/>
			</g>
			<g>
				<path class="st2" d="M642.3,1039.9c-28,0-56-3.2-83.7-9.6c-48.7-11.3-93.6-31.7-133.7-60.8c-38.7-28.1-71.2-63-96.7-103.8
					c-25.4-40.8-42.5-85.3-50.7-132.4c-8.5-48.8-7.1-98.2,4.2-146.8c11.3-48.7,31.7-93.6,60.8-133.7c28.1-38.7,63-71.2,103.8-96.7
					c40.8-25.4,85.3-42.5,132.4-50.7c48.8-8.5,98.2-7.1,146.8,4.2c48.7,11.3,93.6,31.7,133.7,60.8c38.7,28.1,71.2,63,96.7,103.8
					c25.4,40.8,42.5,85.3,50.7,132.4c8.5,48.8,7.1,98.2-4.2,146.8C991.1,802,970.7,847,941.6,887c-28.1,38.7-63,71.2-103.8,96.7
					s-85.3,42.5-132.4,50.7C684.4,1038.1,663.3,1039.9,642.3,1039.9z M641.7,302.4c-20.9,0-41.9,1.8-62.7,5.4
					c-46.8,8.2-91,25.1-131.5,50.3c-40.5,25.3-75.1,57.5-103,96c-28.9,39.8-49.2,84.5-60.4,132.8c-11.2,48.3-12.6,97.4-4.1,145.8
					c8.2,46.8,25.1,91,50.3,131.5s57.5,75.1,96,103c39.8,28.9,84.5,49.2,132.8,60.4c48.3,11.2,97.4,12.6,145.8,4.1
					c46.8-8.2,91-25.1,131.5-50.3c40.5-25.3,75.1-57.5,103-96c28.9-39.8,49.2-84.5,60.4-132.8c11.2-48.3,12.6-97.4,4.1-145.8
					c-8.2-46.8-25.1-91-50.3-131.5s-57.5-75.1-96-103c-39.8-28.9-84.5-49.2-132.8-60.4C697.3,305.6,669.5,302.4,641.7,302.4z"/>
			</g>
			<g>
				<path class="st2" d="M642.3,1049c-27.5,0-55-3-82.4-9.1c-50-11.1-96.3-31.6-137.6-61c-39.9-28.4-73.6-63.9-100.1-105.4
					c-26.5-41.5-44.4-87-53.2-135.2c-9.2-49.9-8.2-100.5,2.8-150.5c11.1-50,31.6-96.3,61-137.6c28.4-39.9,63.9-73.6,105.4-100.1
					c41.5-26.5,87-44.4,135.2-53.2c49.9-9.2,100.5-8.2,150.5,2.8c50,11.1,96.3,31.6,137.6,61c39.9,28.4,73.6,63.9,100.1,105.4
					c26.5,41.5,44.4,87,53.2,135.2c9.2,49.9,8.2,100.5-2.8,150.5s-31.6,96.3-61,137.6c-28.4,39.9-63.9,73.6-105.4,100.1
					c-41.5,26.5-87,44.4-135.2,53.2C687.9,1047,665.1,1049,642.3,1049z M641.7,293.3c-22.6,0-45.2,2.1-67.7,6.2
					c-47.9,8.8-93.1,26.6-134.3,52.9c-41.2,26.3-76.5,59.7-104.7,99.4c-29.2,41.1-49.6,87-60.6,136.7c-11,49.6-11.9,99.9-2.8,149.5
					c8.8,47.9,26.6,93.1,52.9,134.3c26.3,41.2,59.7,76.5,99.4,104.7c41.1,29.2,87,49.6,136.7,60.6c49.6,11,99.9,12,149.5,2.8
					c47.9-8.8,93.1-26.6,134.3-52.9c41.2-26.3,76.5-59.7,104.7-99.4c29.2-41.1,49.6-87,60.6-136.7c11-49.6,12-99.9,2.8-149.5
					c-8.8-47.9-26.6-93.1-52.9-134.3c-26.3-41.2-59.7-76.5-99.4-104.7c-41.1-29.2-87-49.6-136.7-60.6
					C696.3,296.3,669,293.3,641.7,293.3z"/>
			</g>
			<g>
				<path class="st2" d="M642.4,1058.2c-27,0-54.1-2.9-81-8.6c-51.3-10.9-98.9-31.5-141.5-61.2c-41.2-28.7-76-64.7-103.4-107
					c-27.5-42.3-46.2-88.7-55.8-138c-9.9-51-9.4-102.9,1.5-154.2s31.5-98.9,61.2-141.5c28.7-41.2,64.7-76,107-103.4
					c42.3-27.5,88.7-46.2,138-55.8c51-9.9,102.9-9.4,154.2,1.5c51.3,10.9,98.9,31.5,141.5,61.2c41.2,28.7,76,64.7,103.4,107
					c27.5,42.3,46.2,88.7,55.8,138c9.9,51,9.4,102.9-1.5,154.2c-10.9,51.3-31.5,98.9-61.2,141.5c-28.7,41.2-64.7,76-107,103.4
					c-42.3,27.5-88.7,46.2-138,55.8C691.3,1055.9,666.9,1058.2,642.4,1058.2z M641.6,284.1c-24.3,0-48.6,2.3-72.7,7
					c-49,9.5-95.1,28.1-137.1,55.4c-42,27.3-77.8,61.9-106.3,102.8c-29.5,42.3-50,89.6-60.8,140.6s-11.3,102.5-1.5,153.1
					c9.5,49,28.1,95.1,55.4,137.1c27.3,42,61.9,77.8,102.8,106.3c42.3,29.5,89.6,50,140.6,60.8c50.9,10.8,102.5,11.3,153.1,1.5
					c49-9.5,95.1-28.1,137.1-55.4c42-27.3,77.8-61.9,106.3-102.8c29.5-42.3,50-89.6,60.8-140.6c10.8-50.9,11.3-102.5,1.5-153.1
					c-9.5-49-28.1-95.1-55.4-137.1c-27.3-42-61.9-77.8-102.8-106.3c-42.3-29.5-89.6-50-140.6-60.8
					C695.4,286.9,668.5,284.1,641.6,284.1z"/>
			</g>
			<g>
				<path class="st2" d="M642.4,1067.4c-26.5,0-53.1-2.7-79.6-8.1c-52.6-10.7-101.5-31.4-145.4-61.4c-42.4-29-78.3-65.6-106.8-108.6
					s-48.1-90.4-58.3-140.8c-10.5-52.1-10.5-105.2,0.2-157.8c10.7-52.6,31.4-101.5,61.4-145.4c29-42.4,65.6-78.3,108.6-106.8
					c43-28.5,90.4-48.1,140.8-58.3c52.1-10.5,105.2-10.5,157.8,0.2c52.6,10.7,101.5,31.4,145.4,61.4c42.4,29,78.3,65.6,106.8,108.6
					c28.5,43,48.1,90.4,58.3,140.8c10.5,52.1,10.5,105.2-0.2,157.8c-10.7,52.6-31.4,101.5-61.4,145.4
					c-29,42.4-65.6,78.3-108.6,106.8c-43,28.5-90.4,48.1-140.8,58.3C694.7,1064.8,668.6,1067.4,642.4,1067.4z M641.6,274.8
					c-26,0-52,2.6-77.7,7.8c-50,10.1-97.1,29.6-139.9,57.9s-79.1,64-107.9,106.1c-29.9,43.6-50.4,92.2-61,144.5
					c-10.6,52.2-10.7,105-0.2,156.8c10.1,50,29.6,97.1,57.9,139.9c28.3,42.8,64,79.1,106.1,107.9c43.6,29.9,92.2,50.4,144.5,61
					c52.2,10.6,105,10.7,156.8,0.2c50-10.1,97.1-29.6,139.9-57.9c42.8-28.3,79.1-64,107.9-106.1c29.9-43.6,50.4-92.2,61-144.5
					c10.6-52.2,10.7-105,0.2-156.8c-10.1-50-29.6-97.1-57.9-139.9s-64-79.1-106.1-107.9c-43.6-29.9-92.2-50.4-144.5-61
					C694.4,277.5,667.9,274.8,641.6,274.8z"/>
			</g>
			<g>
				<path class="st2" d="M642.5,1076.6c-26.1,0-52.2-2.5-78.2-7.6c-53.9-10.5-104.1-31.2-149.3-61.6
					c-43.6-29.4-80.7-66.5-110.2-110.3c-29.5-43.8-50-92.1-60.8-143.5c-11.2-53.3-11.6-107.6-1.1-161.5
					c10.5-53.9,31.2-104.1,61.6-149.3c29.4-43.6,66.5-80.7,110.3-110.2c43.8-29.5,92.1-50,143.5-60.8
					c53.3-11.2,107.6-11.6,161.5-1.1c53.9,10.5,104.1,31.2,149.3,61.6c43.6,29.4,80.7,66.5,110.2,110.3
					c29.5,43.8,50,92.1,60.8,143.5c11.2,53.3,11.6,107.6,1.1,161.5c-10.5,53.9-31.2,104.1-61.6,149.3
					c-29.4,43.6-66.5,80.7-110.3,110.2c-43.8,29.5-92.1,50-143.5,60.8C698.2,1073.7,670.4,1076.6,642.5,1076.6z M641.5,265.6
					c-27.7,0-55.4,2.9-82.7,8.7c-51.1,10.8-99.1,31.1-142.7,60.5c-43.5,29.3-80.4,66.2-109.6,109.5c-30.2,44.9-50.8,94.8-61.3,148.3
					c-10.4,53.6-10.1,107.6,1.1,160.5c10.8,51.1,31.1,99.1,60.5,142.7c29.3,43.5,66.2,80.4,109.5,109.6
					c44.9,30.2,94.8,50.8,148.3,61.3s107.6,10.1,160.5-1.1c51.1-10.8,99.1-31.1,142.7-60.5c43.5-29.3,80.4-66.2,109.6-109.5
					c30.2-44.9,50.8-94.8,61.3-148.3s10.1-107.6-1.1-160.5c-10.8-51.1-31.1-99.1-60.5-142.7c-29.3-43.5-66.2-80.4-109.5-109.6
					c-44.9-30.2-94.8-50.8-148.3-61.3C693.4,268.1,667.4,265.6,641.5,265.6z"/>
			</g>
			<g>
				<path class="st2" d="M642.5,1085.9c-25.6,0-51.3-2.4-76.9-7.2c-55.2-10.3-106.7-31.1-153.2-61.8
					c-44.8-29.7-83.1-67.3-113.6-111.9s-51.9-93.8-63.4-146.3c-11.9-54.4-12.7-110-2.4-165.1s31.1-106.7,61.8-153.2
					c29.7-44.8,67.3-83.1,111.9-113.6c44.6-30.5,93.8-51.9,146.3-63.4c54.4-11.9,110-12.7,165.1-2.4
					c55.2,10.3,106.7,31.1,153.2,61.8c44.8,29.7,83.1,67.3,113.6,111.9c30.5,44.6,51.9,93.8,63.4,146.3
					c11.9,54.4,12.7,110,2.4,165.1c-10.3,55.2-31.1,106.7-61.8,153.2c-29.7,44.8-67.3,83.1-111.9,113.6
					c-44.6,30.5-93.8,51.9-146.3,63.4C701.6,1082.7,672.1,1085.9,642.5,1085.9z M641.5,256.3c-29.4,0-58.8,3.2-87.8,9.5
					c-52.2,11.4-101.2,32.6-145.5,63C364,359.1,326.5,397.1,297,441.7c-30.5,46.1-51.2,97.4-61.5,152.2s-9.4,110.1,2.4,164.2
					c11.4,52.2,32.6,101.2,63,145.5c30.4,44.3,68.4,81.7,112.9,111.2c46.1,30.5,97.4,51.2,152.2,61.5c54.9,10.2,110.1,9.4,164.2-2.4
					c52.2-11.4,101.2-32.6,145.5-63C920,980.5,957.5,942.5,987,898c30.5-46.1,51.2-97.4,61.5-152.2s9.4-110.1-2.4-164.2
					c-11.4-52.2-32.6-101.2-63-145.5c-30.4-44.3-68.4-81.7-112.9-111.2c-46.1-30.5-97.4-51.2-152.2-61.5
					C692.5,258.7,666.9,256.3,641.5,256.3z"/>
			</g>
			<g>
				<path class="st2" d="M642.6,1095.1c-25.1,0-50.3-2.2-75.5-6.8c-56.5-10.1-109.3-31-157-62.1c-46.1-30-85.4-68.2-117-113.5
					c-31.6-45.3-53.7-95.5-65.9-149.1c-12.6-55.5-13.8-112.3-3.7-168.8c10.1-56.5,31-109.3,62.1-157c30-46.1,68.2-85.4,113.5-117
					c45.3-31.6,95.5-53.7,149.1-65.9c55.5-12.6,112.3-13.8,168.8-3.7c56.5,10.1,109.3,31,157,62.1c46.1,30,85.4,68.2,117,113.5
					c31.6,45.3,53.7,95.5,65.9,149.1c12.6,55.5,13.8,112.3,3.7,168.8c-10.1,56.5-31,109.3-62.1,157c-30,46.1-68.2,85.4-113.5,117
					c-45.3,31.6-95.5,53.7-149.1,65.9C705.1,1091.7,673.9,1095.1,642.6,1095.1z M641.4,247c-31.1,0-62.2,3.5-92.8,10.4
					c-53.3,12.1-103.2,34.1-148.2,65.5s-83,70.5-112.9,116.3c-30.9,47.4-51.6,100-61.7,156.1c-10.1,56.2-8.8,112.7,3.7,167.8
					c12.1,53.3,34.1,103.2,65.5,148.2c31.4,45.1,70.5,83,116.3,112.9c47.4,30.9,100,51.6,156.1,61.7c56.2,10.1,112.7,8.8,167.8-3.7
					c53.3-12.1,103.2-34.1,148.2-65.5c45.1-31.4,83-70.5,112.9-116.3c30.9-47.4,51.6-100,61.7-156.1s8.8-112.7-3.7-167.8
					c-12.1-53.3-34.1-103.2-65.5-148.2c-31.4-45.1-70.5-83-116.3-112.9c-47.4-30.9-100-51.6-156.1-61.7
					C691.5,249.2,666.4,247,641.4,247z"/>
			</g>
			<g>
				<path class="st2" d="M642.6,1104.4c-24.7,0-49.4-2.1-74.1-6.4c-57.8-9.9-112-30.9-160.9-62.3c-47.3-30.3-87.8-69.1-120.4-115.1
					c-32.6-46.1-55.6-97.2-68.4-151.9c-13.3-56.6-15-114.7-5-172.5s30.9-112,62.3-160.9c30.3-47.3,69.1-87.8,115.1-120.4
					s97.2-55.6,151.9-68.4c56.6-13.3,114.7-15,172.5-5c57.8,9.9,112,30.9,160.9,62.3c47.3,30.3,87.8,69.1,120.4,115.1
					c32.6,46.1,55.6,97.2,68.4,151.9c13.3,56.6,15,114.7,5,172.5c-9.9,57.8-30.9,112-62.3,160.9c-30.3,47.3-69.1,87.8-115.1,120.4
					c-46.1,32.6-97.2,55.6-151.9,68.4C708.5,1100.6,675.7,1104.4,642.6,1104.4z M641.4,237.6c-32.9,0-65.6,3.8-97.8,11.3
					c-54.4,12.7-105.2,35.6-151,68c-45.8,32.4-84.4,72.7-114.5,119.7c-31.2,48.7-52.1,102.5-61.9,160s-8.2,115.2,5,171.5
					c12.7,54.4,35.6,105.2,68,151c32.4,45.8,72.7,84.4,119.7,114.5c48.7,31.2,102.5,52.1,160,61.9c57.5,9.9,115.2,8.2,171.5-5
					c54.4-12.7,105.2-35.6,151-68C937.3,990.3,975.8,950,1006,903c31.2-48.7,52.1-102.5,61.9-160s8.2-115.2-5-171.5
					c-12.7-54.4-35.6-105.2-68-151c-32.4-45.8-72.7-84.4-119.7-114.5c-48.7-31.2-102.5-52.1-160-61.9
					C690.5,239.7,665.9,237.6,641.4,237.6z"/>
			</g>
			<g>
				<path class="st2" d="M642.6,1113.8c-24.2,0-48.5-2-72.7-6c-59.1-9.7-114.6-30.7-164.8-62.5c-48.5-30.6-90.2-69.9-123.8-116.8
					c-33.6-46.8-57.5-98.9-70.9-154.6c-14-57.8-16.1-117-6.4-176.1c9.7-59.1,30.7-114.6,62.5-164.8c30.6-48.5,69.9-90.2,116.8-123.8
					c46.8-33.6,98.9-57.5,154.6-70.9c57.7-14,117-16.1,176.1-6.4c59.1,9.7,114.6,30.7,164.8,62.5c48.5,30.6,90.2,69.9,123.8,116.8
					c33.6,46.8,57.5,98.9,70.9,154.6c14,57.8,16.1,117,6.4,176.1c-9.7,59.1-30.7,114.6-62.5,164.8c-30.6,48.5-69.9,90.2-116.8,123.8
					c-46.8,33.6-98.9,57.5-154.6,70.9C712,1109.6,677.4,1113.8,642.6,1113.8z M641.4,228.3c-34.6,0-69,4.1-102.9,12.3
					C483,254,431.3,277.7,384.7,311.1C338.1,344.5,299,386,268.5,434.2c-31.6,50-52.5,105.1-62.1,163.9s-7.6,117.8,6.3,175.2
					c13.4,55.5,37.1,107.2,70.6,153.8s74.8,85.7,123.1,116.1c50,31.6,105.1,52.5,163.9,62.1c58.8,9.7,117.7,7.6,175.2-6.3
					c55.5-13.4,107.2-37.1,153.8-70.6c46.6-33.4,85.7-74.8,116.1-123.1c31.6-50,52.5-105.1,62.1-163.9s7.6-117.8-6.3-175.2
					c-13.4-55.5-37.1-107.2-70.6-153.8c-33.4-46.6-74.8-85.7-123.1-116.1c-50-31.6-105.1-52.5-163.9-62.1
					C689.6,230.3,665.4,228.3,641.4,228.3z"/>
			</g>
			<g>
				<path class="st2" d="M642.7,1123.1c-23.7,0-47.5-1.9-71.3-5.6c-60.4-9.5-117.2-30.6-168.7-62.7c-49.7-31-92.5-70.8-127.1-118.4
					c-34.6-47.6-59.3-100.6-73.5-157.4c-14.6-58.9-17.2-119.4-7.7-179.8S225,482,257.1,430.5c31-49.7,70.8-92.5,118.4-127.1
					C423,268.7,476,244,532.9,229.9c58.9-14.6,119.4-17.2,179.8-7.7c60.4,9.5,117.2,30.6,168.7,62.7c49.7,31,92.5,70.8,127.1,118.4
					c34.6,47.6,59.3,100.6,73.5,157.4c14.6,58.9,17.2,119.4,7.7,179.8c-9.5,60.4-30.6,117.2-62.7,168.7
					c-31,49.7-70.8,92.5-118.4,127.1c-47.6,34.6-100.6,59.3-157.4,73.5C715.5,1118.7,679.2,1123.1,642.7,1123.1z M641.3,218.9
					c-36.3,0-72.4,4.4-107.9,13.2c-56.6,14.1-109.3,38.7-156.6,73.1s-87,77-117.8,126.5c-31.9,51.2-52.9,107.7-62.4,167.8
					s-6.9,120.3,7.6,178.9C218.4,835,243,887.7,277.4,935s77,87,126.5,117.8c51.2,31.9,107.7,52.9,167.8,62.4
					c60.1,9.5,120.3,6.9,178.9-7.6c56.6-14.1,109.3-38.7,156.6-73.1c47.4-34.4,87-77,117.8-126.5c31.9-51.2,52.9-107.7,62.4-167.8
					c9.5-60.1,6.9-120.3-7.6-178.9c-14.1-56.6-38.7-109.3-73.1-156.6c-34.4-47.4-77-87-126.5-117.8C828.9,255,772.4,234,712.3,224.5
					C688.6,220.8,664.9,218.9,641.3,218.9z"/>
			</g>
			<g>
				<path class="st2" d="M642.7,1132.5c-23.3,0-46.6-1.8-70-5.3c-61.7-9.3-119.8-30.5-172.6-62.9c-51-31.3-94.9-71.7-130.5-120
					c-35.6-48.4-61.2-102.3-76-160.2c-15.3-60-18.3-121.7-9-183.4c9.3-61.7,30.5-119.8,62.9-172.6c31.3-51,71.7-94.9,120-130.5
					c48.4-35.6,102.3-61.2,160.2-76c60-15.3,121.7-18.3,183.4-9C773,221.9,831,243,883.8,275.4c51,31.3,94.9,71.7,130.5,120
					c35.6,48.4,61.2,102.3,76,160.2c15.3,60,18.3,121.7,9,183.4c-9.3,61.7-30.5,119.8-62.9,172.6c-31.3,51-71.7,94.9-120,130.5
					c-48.4,35.6-102.3,61.2-160.2,76C718.9,1127.7,680.9,1132.5,642.7,1132.5z M641.3,209.5c-38,0-75.8,4.7-112.9,14.2
					c-57.7,14.7-111.3,40.2-159.4,75.6c-48.1,35.5-88.3,79.2-119.4,129.9c-32.2,52.5-53.3,110.3-62.6,171.7
					c-9.3,61.4-6.3,122.8,8.9,182.5c14.7,57.7,40.2,111.3,75.6,159.4c35.5,48.1,79.2,88.3,129.9,119.4
					c52.5,32.2,110.3,53.3,171.7,62.6c61.4,9.3,122.8,6.3,182.5-8.9c57.7-14.7,111.3-40.2,159.4-75.6
					c48.1-35.5,88.3-79.2,119.4-129.9c32.2-52.5,53.3-110.3,62.6-171.7c9.3-61.4,6.3-122.8-8.9-182.5
					c-14.7-57.7-40.2-111.3-75.6-159.4c-35.5-48.1-79.2-88.3-129.9-119.4c-52.5-32.2-110.3-53.3-171.7-62.6
					C687.7,211.3,664.4,209.5,641.3,209.5z"/>
			</g>
			<g>
				<path class="st2" d="M642.8,1141.8c-22.8,0-45.7-1.7-68.6-5c-63-9.2-122.4-30.4-176.4-63.1c-52.2-31.6-97.2-72.5-133.9-121.6
					s-63.1-103.9-78.5-163C169.3,728,165.8,665.1,175,602s30.4-122.4,63.1-176.4c31.6-52.2,72.5-97.2,121.6-133.9
					c49.1-36.7,103.9-63.1,163-78.5c61.1-16,124.1-19.5,187.1-10.3c63,9.2,122.4,30.4,176.4,63.1c52.2,31.6,97.2,72.5,133.9,121.6
					c36.7,49.1,63.1,103.9,78.5,163c16,61.1,19.5,124.1,10.3,187.1s-30.4,122.4-63.1,176.4c-31.6,52.2-72.5,97.2-121.6,133.9
					c-49.1,36.7-104,63.1-163,78.5C722.4,1136.7,682.7,1141.8,642.8,1141.8z M641.2,200.1c-39.8,0-79.2,5.1-118,15.2
					C464.5,230.7,410,257,361.1,293.5C312.2,330,271.5,374.8,240,426.7c-32.6,53.8-53.7,112.9-62.8,175.6
					c-9.1,62.7-5.7,125.4,10.3,186.2c15.4,58.7,41.7,113.3,78.2,162.2c36.5,48.9,81.3,89.6,133.3,121.1
					c53.8,32.6,112.9,53.7,175.6,62.8c62.7,9.1,125.4,5.7,186.2-10.3c58.7-15.4,113.3-41.7,162.2-78.2
					c48.9-36.5,89.6-81.3,121.1-133.3c32.6-53.8,53.7-112.9,62.8-175.6c9.1-62.7,5.7-125.4-10.3-186.2
					c-15.4-58.7-41.7-113.3-78.2-162.2c-36.5-48.9-81.3-89.6-133.3-121.1c-53.8-32.6-112.9-53.7-175.6-62.8
					C686.7,201.8,663.9,200.1,641.2,200.1z"/>
			</g>
			<g>
				<path class="st2" d="M642.8,1151.2c-22.3,0-44.7-1.6-67.2-4.7c-64.4-9-125-30.3-180.3-63.3c-53.4-31.9-99.6-73.4-137.3-123.3
					c-37.7-49.9-65-105.6-81.1-165.8c-16.7-62.2-20.6-126.4-11.6-190.8c9-64.4,30.3-125,63.3-180.3c31.9-53.4,73.4-99.6,123.3-137.3
					c49.9-37.7,105.6-64.9,165.8-81.1c62.2-16.7,126.4-20.6,190.8-11.6c64.4,9,125,30.3,180.3,63.3c53.4,31.9,99.6,73.4,137.3,123.3
					c37.7,49.9,64.9,105.6,81.1,165.8c16.7,62.2,20.6,126.4,11.6,190.8s-30.3,125-63.3,180.3c-31.9,53.4-73.4,99.6-123.3,137.3
					c-49.9,37.7-105.6,64.9-165.8,81.1C725.8,1145.8,684.5,1151.2,642.8,1151.2z M641.2,190.7c-41.5,0-82.7,5.4-123,16.2
					c-59.8,16-115.3,43.2-165,80.7c-49.6,37.5-90.9,83.5-122.7,136.7c-32.9,55.1-54.1,115.4-63,179.5c-8.9,64.1-5,127.9,11.6,189.9
					c16,59.8,43.2,115.3,80.7,165c37.5,49.6,83.5,90.9,136.7,122.7c55.1,32.9,115.4,54.1,179.5,63c64.1,8.9,127.9,5,189.9-11.6
					c59.8-16,115.3-43.2,165-80.7c49.6-37.5,90.9-83.5,122.7-136.7c32.9-55.1,54.1-115.4,63-179.5c8.9-64.1,5-127.9-11.6-189.9
					c-16-59.8-43.2-115.3-80.7-165c-37.5-49.6-83.5-90.9-136.7-122.7c-55.1-32.9-115.4-54.1-179.5-63
					C685.8,192.2,663.4,190.7,641.2,190.7z"/>
			</g>
			<g>
				<path class="st2" d="M642.8,1160.6c-21.9,0-43.8-1.5-65.8-4.4c-65.7-8.8-127.6-30.1-184.2-63.5c-54.6-32.2-102-74.3-140.7-124.9
					c-38.7-50.6-66.8-107.3-83.6-168.5c-17.4-63.4-21.7-128.8-12.9-194.4c8.8-65.7,30.1-127.6,63.5-184.2
					C251.4,366,293.4,318.7,344,280c50.6-38.7,107.3-66.8,168.5-83.6c63.4-17.4,128.8-21.7,194.4-12.9
					c65.7,8.8,127.6,30.1,184.2,63.5c54.6,32.2,102,74.3,140.7,124.9c38.7,50.6,66.8,107.3,83.6,168.5
					c17.4,63.4,21.7,128.8,12.9,194.4c-8.8,65.7-30.1,127.6-63.5,184.2c-32.2,54.6-74.3,102-124.9,140.7
					c-50.6,38.7-107.3,66.8-168.5,83.6C729.3,1154.8,686.2,1160.6,642.8,1160.6z M641.2,181.2c-43.2,0-86.1,5.8-128.1,17.3
					c-60.9,16.7-117.4,44.7-167.8,83.2c-50.4,38.5-92.2,85.6-124.3,140.1c-33.2,56.3-54.5,118-63.2,183.4
					c-8.7,65.4-4.4,130.5,12.9,193.6c16.7,60.9,44.7,117.4,83.2,167.8c38.5,50.4,85.6,92.2,140.1,124.3
					c56.3,33.2,118,54.5,183.4,63.2c65.4,8.7,130.5,4.4,193.6-12.9c60.9-16.7,117.4-44.7,167.8-83.2
					c50.4-38.5,92.2-85.6,124.3-140.1c33.2-56.3,54.5-118,63.2-183.4s4.4-130.5-12.9-193.6c-16.7-60.9-44.7-117.4-83.2-167.8
					c-38.5-50.4-85.6-92.2-140.1-124.3c-56.3-33.2-118-54.5-183.4-63.2C684.8,182.7,663,181.2,641.2,181.2z"/>
			</g>
			<g>
				<path class="st2" d="M642.8,1170c-21.4,0-42.9-1.4-64.4-4.1c-67-8.6-130.3-30-188.1-63.7c-55.9-32.6-104.3-75.1-144.1-126.5
					c-39.7-51.4-68.7-109-86.1-171.3c-18-64.5-22.8-131.1-14.2-198.1c8.6-67,30-130.3,63.7-188.1c32.6-55.9,75.1-104.3,126.5-144.1
					c51.4-39.7,109-68.7,171.3-86.1c64.5-18,131.1-22.8,198.1-14.2c67,8.6,130.3,30,188.1,63.7c55.9,32.6,104.3,75.1,144.1,126.5
					c39.7,51.4,68.7,109,86.1,171.3c18,64.5,22.8,131.1,14.2,198.1c-8.6,67-30,130.3-63.7,188.1c-32.6,55.9-75.1,104.3-126.5,144.1
					s-109,68.7-171.3,86.1C732.8,1163.9,688,1170,642.8,1170z M641.2,171.8c-45,0-89.5,6.1-133.1,18.3
					c-62,17.3-119.4,46.2-170.6,85.7c-51.2,39.6-93.6,87.8-126,143.4c-33.6,57.6-54.9,120.6-63.5,187.3
					c-8.5,66.7-3.8,133,14.2,197.2c17.3,62,46.2,119.4,85.7,170.6c39.6,51.2,87.8,93.6,143.4,126c57.6,33.6,120.6,54.9,187.3,63.5
					c66.7,8.5,133,3.8,197.2-14.2c62-17.3,119.4-46.2,170.6-85.7s93.6-87.8,126-143.4c33.6-57.6,54.9-120.6,63.5-187.3
					c8.5-66.7,3.8-133-14.2-197.2c-17.3-62-46.2-119.4-85.7-170.6c-39.6-51.2-87.8-93.6-143.4-126C835,205.8,772,184.4,705.3,175.9
					C683.9,173.1,662.5,171.8,641.2,171.8z"/>
			</g>
			<g>
				<path class="st2" d="M642.9,1179.5c-20.9,0-41.9-1.3-63-3.9c-68.3-8.4-132.9-29.9-192-63.9c-57.1-32.9-106.7-76-147.4-128.1
					c-40.7-52.2-70.6-110.7-88.6-174.1c-18.7-65.6-23.9-133.5-15.6-201.7c8.4-68.3,29.9-132.9,63.9-192
					c32.9-57.1,76-106.7,128.1-147.4c52.2-40.7,110.7-70.6,174.1-88.6c65.6-18.7,133.5-23.9,201.7-15.6
					c68.3,8.4,132.9,29.9,192,63.9c57.1,32.9,106.7,76,147.4,128.1c40.7,52.2,70.6,110.7,88.6,174.1
					c18.7,65.6,23.9,133.5,15.6,201.7c-8.4,68.3-29.9,132.9-63.9,192c-32.9,57.1-76,106.7-128.1,147.4
					c-52.2,40.7-110.7,70.6-174.1,88.6C736.2,1173,689.8,1179.5,642.9,1179.5z M641.1,162.3c-46.7,0-93,6.5-138.2,19.4
					c-63.1,18-121.4,47.7-173.4,88.3s-94.9,90-127.6,146.8c-33.9,58.9-55.3,123.2-63.7,191.2c-8.4,68-3.1,135.6,15.5,200.9
					c18,63.1,47.7,121.4,88.3,173.4c40.6,51.9,90,94.9,146.8,127.6c58.9,33.9,123.2,55.3,191.2,63.7c68,8.4,135.6,3.1,200.9-15.5
					c63.1-18,121.4-47.7,173.4-88.3s94.9-90,127.6-146.8c33.9-58.9,55.3-123.2,63.7-191.2c8.4-68,3.1-135.6-15.5-200.9
					c-18-63.1-47.7-121.4-88.3-173.4c-40.6-51.9-90-94.9-146.8-127.6c-58.9-33.9-123.2-55.3-191.2-63.7
					C682.9,163.6,662,162.3,641.1,162.3z"/>
			</g>
			<g>
				<path class="st2" d="M642.9,1188.9c-20.5,0-41-1.2-61.6-3.6c-69.6-8.2-135.5-29.8-195.9-64.1c-58.3-33.2-109.1-76.9-150.8-129.8
					c-41.8-52.9-72.4-112.4-91.2-176.9c-19.4-66.7-25.1-135.8-16.9-205.4c8.2-69.6,29.8-135.5,64.1-195.9
					c33.2-58.3,76.9-109.1,129.8-150.8c52.9-41.8,112.4-72.4,176.9-91.2c66.7-19.4,135.8-25.1,205.4-16.9
					c69.6,8.2,135.5,29.8,195.9,64.1c58.3,33.2,109.1,76.9,150.8,129.8c41.8,52.9,72.4,112.4,91.2,176.9
					c19.4,66.7,25.1,135.8,16.9,205.4c-8.2,69.6-29.8,135.5-64.1,195.9c-33.2,58.3-76.9,109.1-129.8,150.8
					c-52.9,41.8-112.4,72.4-176.9,91.2C739.7,1182.1,691.6,1188.9,642.9,1188.9z M641.1,152.8c-48.5,0-96.4,6.8-143.2,20.4
					c-64.2,18.7-123.4,49.2-176.2,90.8c-52.7,41.6-96.2,92.1-129.3,150.2c-34.2,60.1-55.7,125.8-63.9,195.1
					c-8.2,69.3-2.5,138.1,16.8,204.6c18.7,64.2,49.2,123.4,90.8,176.2c41.6,52.7,92.1,96.2,150.2,129.3
					c60.1,34.2,125.8,55.7,195.1,63.9c69.3,8.2,138.1,2.5,204.6-16.8c64.2-18.7,123.4-49.2,176.2-90.8
					c52.7-41.6,96.2-92.1,129.3-150.2c34.2-60.1,55.7-125.8,63.9-195.1s2.5-138.1-16.8-204.6c-18.7-64.2-49.2-123.4-90.8-176.2
					c-41.6-52.7-92.1-96.2-150.2-129.3c-60.1-34.2-125.8-55.7-195.1-63.9C682,154,661.5,152.8,641.1,152.8z"/>
			</g>
			<g>
				<path class="st2" d="M642.9,1198.4c-20,0-40.1-1.1-60.2-3.4c-70.9-8-138.1-29.7-199.7-64.4c-59.5-33.5-111.4-77.7-154.2-131.4
					C186,945.6,154.4,885.1,135,819.6c-20.1-67.8-26.2-138.2-18.2-209.1c8-70.9,29.7-138.1,64.4-199.7
					c33.5-59.5,77.7-111.4,131.4-154.2c53.7-42.8,114.1-74.3,179.6-93.7c67.8-20.1,138.2-26.2,209.1-18.2
					c70.9,8,138.1,29.7,199.7,64.4c59.5,33.5,111.4,77.7,154.2,131.4c42.8,53.7,74.3,114.1,93.7,179.6
					c20.1,67.8,26.2,138.2,18.2,209.1c-8,70.9-29.7,138.1-64.4,199.7c-33.5,59.5-77.7,111.4-131.4,154.2
					c-53.7,42.8-114.1,74.3-179.6,93.7C743.2,1191.2,693.3,1198.4,642.9,1198.4z M641.1,143.3c-50.2,0-99.9,7.2-148.3,21.5
					c-65.3,19.3-125.5,50.7-178.9,93.3c-53.5,42.6-97.5,94.3-130.9,153.6c-34.6,61.4-56.1,128.4-64.1,199
					c-8,70.6-1.9,140.7,18.1,208.3c19.3,65.3,50.7,125.5,93.3,178.9c42.6,53.5,94.3,97.5,153.6,130.9c61.4,34.6,128.4,56.1,199,64.1
					c70.6,8,140.7,1.9,208.3-18.1c65.3-19.3,125.5-50.7,178.9-93.3c53.5-42.6,97.5-94.3,130.9-153.6c34.6-61.4,56.1-128.4,64.1-199
					c8-70.6,1.9-140.7-18.1-208.3c-19.3-65.3-50.7-125.5-93.3-178.9c-42.6-53.5-94.3-97.5-153.6-130.9
					c-61.4-34.6-128.4-56.1-199-64.1C681,144.5,661,143.3,641.1,143.3z"/>
			</g>
			<g>
				<path class="st2" d="M642.9,1207.9c-19.5,0-39.1-1.1-58.8-3.2c-72.2-7.8-140.7-29.5-203.6-64.6c-60.8-33.8-113.8-78.6-157.6-133
					c-43.8-54.4-76.2-115.8-96.2-182.4c-20.8-69-27.3-140.5-19.5-212.7s29.5-140.7,64.6-203.6c33.8-60.8,78.6-113.8,133-157.6
					s115.8-76.2,182.4-96.2c69-20.8,140.5-27.3,212.7-19.5c72.2,7.8,140.7,29.5,203.6,64.6c60.8,33.8,113.8,78.6,157.6,133
					c43.8,54.4,76.2,115.8,96.2,182.4c20.8,69,27.3,140.5,19.5,212.7c-7.8,72.2-29.5,140.7-64.6,203.6
					c-33.8,60.8-78.6,113.8-133,157.6c-54.4,43.8-115.8,76.2-182.4,96.2C746.7,1200.3,695.1,1207.9,642.9,1207.9z M641.1,133.8
					c-52,0-103.4,7.6-153.3,22.6c-66.4,20-127.5,52.2-181.7,95.9c-54.2,43.6-98.8,96.5-132.5,157c-34.9,62.7-56.5,130.9-64.3,202.9
					c-7.8,71.9-1.3,143.2,19.4,211.9c20,66.4,52.2,127.5,95.9,181.7c43.6,54.2,96.5,98.8,157,132.5c62.7,34.9,130.9,56.5,202.9,64.3
					c71.9,7.8,143.2,1.3,211.9-19.4c66.4-20,127.5-52.2,181.7-95.9c54.2-43.6,98.8-96.5,132.5-157c34.9-62.7,56.5-130.9,64.3-202.9
					c7.8-71.9,1.3-143.2-19.4-211.9c-20-66.4-52.2-127.5-95.9-181.7c-43.6-54.2-96.5-98.8-157-132.5
					c-62.7-34.9-130.9-56.5-202.9-64.3C680.1,134.9,660.5,133.8,641.1,133.8z"/>
			</g>
			<g>
				<path class="st2" d="M642.9,1217.3c-19.1,0-38.2-1-57.4-3c-73.5-7.6-143.3-29.4-207.5-64.8c-62-34.2-116.2-79.5-161-134.6
					c-44.8-55.2-78-117.5-98.7-185.2c-21.4-70.1-28.4-142.9-20.8-216.4s29.4-143.3,64.8-207.5c34.2-62,79.5-116.2,134.6-161
					c55.2-44.8,117.5-78,185.2-98.7c70.1-21.4,142.9-28.4,216.4-20.8C772,133,841.8,154.7,906,190.1c62,34.2,116.2,79.5,161,134.6
					c44.8,55.2,78,117.5,98.7,185.2c21.4,70.1,28.4,142.9,20.8,216.4s-29.4,143.3-64.8,207.5c-34.2,62-79.5,116.2-134.6,161
					c-55.2,44.8-117.5,78-185.2,98.7C750.1,1209.4,696.9,1217.3,642.9,1217.3z M641.1,124.3c-53.7,0-106.8,7.9-158.4,23.7
					c-67.4,20.6-129.5,53.7-184.5,98.4S198,345,164,406.8c-35.2,64-56.9,133.5-64.5,206.8c-7.6,73.2-0.6,145.8,20.7,215.6
					c20.6,67.4,53.7,129.5,98.4,184.5c44.7,55,98.6,100.1,160.4,134.2c64,35.2,133.5,56.9,206.8,64.5c73.2,7.6,145.8,0.6,215.6-20.7
					c67.4-20.6,129.5-53.7,184.5-98.4c55-44.7,100.1-98.6,134.2-160.4c35.2-64,56.9-133.5,64.5-206.8c7.6-73.2,0.6-145.8-20.7-215.6
					c-20.6-67.4-53.7-129.5-98.4-184.5c-44.7-55-98.6-100.1-160.4-134.2c-64-35.2-133.5-56.9-206.8-64.5
					C679.2,125.3,660.1,124.3,641.1,124.3z"/>
			</g>
			<g>
				<path class="st2" d="M642.9,1226.8c-18.6,0-37.3-0.9-56-2.8c-74.8-7.4-145.9-29.3-211.4-65c-63.2-34.5-118.5-80.3-164.4-136.3
					c-45.8-56-79.9-119.2-101.3-188c-22.1-71.2-29.6-145.2-22.1-220c7.4-74.8,29.3-145.9,65-211.4c34.5-63.2,80.3-118.5,136.3-164.4
					s119.2-79.9,188-101.3c71.2-22.1,145.2-29.6,220-22.1c74.8,7.4,145.9,29.3,211.4,65c63.2,34.5,118.5,80.3,164.4,136.3
					c45.8,56,79.9,119.2,101.3,188c22.1,71.2,29.6,145.2,22.1,220c-7.4,74.8-29.3,145.9-65,211.4c-34.5,63.2-80.3,118.5-136.3,164.4
					c-56,45.8-119.2,79.9-188,101.3C753.6,1218.5,698.6,1226.8,642.9,1226.8z M641.1,114.8c-55.5,0-110.3,8.3-163.5,24.8
					c-68.5,21.3-131.6,55.2-187.3,100.9S188.8,341.3,154.5,404.3C118.9,469.5,97.1,540.4,89.7,615c-7.4,74.6,0,148.3,22,219.3
					c21.3,68.5,55.2,131.6,100.9,187.3c45.7,55.8,100.8,101.5,163.8,135.8c65.2,35.6,136.1,57.4,210.7,64.8
					c74.6,7.4,148.3,0,219.3-22c68.5-21.3,131.6-55.2,187.3-100.9c55.8-45.7,101.5-100.8,135.8-163.8
					c35.6-65.2,57.4-136.1,64.8-210.7c7.4-74.6,0-148.3-22-219.3c-21.3-68.5-55.2-131.6-100.9-187.3S970.5,216.7,907.5,182.3
					c-65.2-35.6-136.1-57.4-210.7-64.8C678.2,115.7,659.6,114.8,641.1,114.8z"/>
			</g>
			<g>
				<path class="st2" d="M642.9,1236.3c-18.1,0-36.3-0.9-54.6-2.6c-76.1-7.2-148.6-29.2-215.3-65.2
					c-64.4-34.8-120.9-81.2-167.7-137.9c-46.9-56.7-81.8-120.9-103.8-190.7c-22.8-72.3-30.7-147.6-23.4-223.7s29.2-148.6,65.2-215.3
					c34.8-64.4,81.2-120.9,137.9-167.7s120.9-81.8,190.7-103.8c72.3-22.8,147.6-30.7,223.7-23.4c76.1,7.2,148.6,29.2,215.3,65.2
					c64.4,34.8,120.9,81.2,167.7,137.9c46.9,56.7,81.8,120.9,103.8,190.7c22.8,72.3,30.7,147.6,23.4,223.7s-29.2,148.6-65.2,215.3
					c-34.8,64.4-81.2,120.9-137.9,167.7c-56.7,46.9-120.9,81.8-190.7,103.8C757.1,1227.6,700.4,1236.3,642.9,1236.3z M641.1,105.2
					c-57.3,0-113.8,8.7-168.5,25.9c-69.6,21.9-133.6,56.7-190.1,103.4S179.6,337.6,145,401.8c-35.9,66.5-57.8,138.7-65,214.6
					c-7.2,75.9,0.6,150.9,23.4,223c21.9,69.6,56.7,133.6,103.4,190.1c46.7,56.5,103,102.8,167.2,137.4
					c66.5,35.9,138.7,57.8,214.6,65c75.9,7.2,150.9-0.6,223-23.4c69.6-21.9,133.6-56.7,190.1-103.4c56.5-46.7,102.8-103,137.4-167.2
					c35.9-66.5,57.8-138.7,65-214.6s-0.6-150.9-23.4-223c-21.9-69.6-56.7-133.6-103.4-190.1S974.3,207.5,910,172.8
					c-66.5-35.9-138.7-57.8-214.6-65C677.3,106.1,659.1,105.2,641.1,105.2z"/>
			</g>
			<g>
				<path class="st2" d="M643,1245.8c-17.7,0-35.4-0.8-53.2-2.4c-77.4-7.1-151.2-29.1-219.2-65.4c-65.7-35.1-123.2-82.1-171.1-139.5
					C151.6,981,115.8,915.9,93.2,845C69.7,771.5,61.4,695,68.4,617.6c7.1-77.4,29.1-151.2,65.4-219.2
					c35.1-65.7,82.1-123.2,139.5-171.1c57.5-47.9,122.6-83.6,193.5-106.3c73.4-23.5,149.9-31.8,227.4-24.7
					c77.4,7.1,151.2,29.1,219.2,65.4c65.7,35.1,123.2,82.1,171.1,139.5c47.9,57.5,83.6,122.6,106.3,193.5
					c23.5,73.4,31.8,149.9,24.7,227.4c-7.1,77.4-29.1,151.2-65.4,219.2c-35.1,65.7-82.1,123.2-139.5,171.1
					c-57.5,47.9-122.6,83.6-193.5,106.3C760.6,1236.8,702.2,1245.8,643,1245.8z M641.1,95.7c-59,0-117.2,9.1-173.6,27.1
					c-70.7,22.6-135.6,58.3-192.9,106c-57.3,47.7-104.1,105.1-139.1,170.6c-36.2,67.8-58.2,141.3-65.2,218.5s1.3,153.4,24.7,226.6
					c22.6,70.7,58.3,135.6,106,192.9c47.7,57.3,105.1,104.1,170.6,139.1c67.8,36.2,141.3,58.2,218.5,65.2
					c77.2,7,153.4-1.3,226.6-24.7c70.7-22.6,135.6-58.3,192.9-106c57.3-47.7,104.1-105.1,139.1-170.6
					c36.2-67.8,58.2-141.3,65.2-218.5c7-77.2-1.3-153.4-24.7-226.6c-22.6-70.7-58.3-135.6-106-192.9
					c-47.7-57.3-105.1-104.1-170.6-139.1c-67.8-36.2-141.3-58.2-218.5-65.2C676.3,96.5,658.7,95.7,641.1,95.7z"/>
			</g>
			<g>
				<path class="st2" d="M643,1255.4c-17.2,0-34.5-0.8-51.8-2.3c-78.7-6.9-153.8-28.9-223-65.6c-66.9-35.4-125.6-82.9-174.5-141.2
					C144.7,988.1,108.1,922.1,84.8,850c-24.1-74.6-32.9-152.3-26.1-231s28.9-153.8,65.6-223c35.4-66.9,82.9-125.6,141.2-174.5
					c58.2-48.9,124.3-85.5,196.3-108.8c74.6-24.1,152.3-32.9,231-26.1c78.7,6.9,153.8,28.9,223,65.6
					c66.9,35.4,125.6,82.9,174.5,141.2c48.9,58.2,85.5,124.3,108.8,196.3c24.1,74.6,32.9,152.3,26.1,231s-28.9,153.8-65.6,223
					c-35.4,66.9-82.9,125.6-141.2,174.5c-58.2,48.9-124.3,85.5-196.3,108.8C764,1245.9,704,1255.4,643,1255.4z M641,86.1
					c-60.8,0-120.7,9.4-178.7,28.2c-71.8,23.3-137.6,59.8-195.7,108.5S161.3,330.1,126,396.8c-36.6,69-58.6,143.9-65.4,222.3
					c-6.8,78.5,1.9,156,26,230.3c23.3,71.8,59.8,137.6,108.5,195.7c48.7,58.1,107.3,105.4,174,140.7c69,36.6,143.9,58.6,222.3,65.4
					c78.5,6.8,156-1.9,230.3-26c71.8-23.3,137.6-59.8,195.7-108.5c58.1-48.7,105.4-107.3,140.7-174c36.6-69,58.6-143.9,65.4-222.3
					s-1.9-156-26-230.3c-23.3-71.8-59.8-137.6-108.5-195.7c-48.7-58.1-107.3-105.4-174-140.7c-69-36.6-143.9-58.6-222.3-65.4
					C675.4,86.9,658.2,86.1,641,86.1z"/>
			</g>
			<g>
				<path class="st2" d="M643,1264.9c-16.7,0-33.5-0.7-50.4-2.1c-80-6.7-156.4-28.8-226.9-65.8c-68.1-35.7-128-83.8-177.9-142.8
					c-49.9-59-87.4-126-111.4-199.1c-24.8-75.7-34-154.6-27.4-234.7S77.9,464,114.9,393.5c35.7-68.1,83.8-128,142.8-177.9
					s126-87.4,199.1-111.4c75.7-24.8,154.6-34,234.7-27.4c80,6.7,156.4,28.8,226.9,65.8c68.1,35.7,128,83.8,177.9,142.8
					c49.9,59,87.4,126,111.4,199.1c24.8,75.7,34,154.6,27.4,234.7s-28.8,156.4-65.8,226.9c-35.7,68.1-83.8,128-142.8,177.9
					c-59,49.9-126,87.4-199.1,111.4C767.5,1255,705.7,1264.9,643,1264.9z M641,76.6c-62.6,0-124.2,9.8-183.8,29.4
					c-72.9,23.9-139.7,61.3-198.5,111S152.1,326.4,116.5,394.3c-36.9,70.3-59,146.4-65.6,226.2c-6.7,79.8,2.5,158.5,27.3,234
					c23.9,72.9,61.3,139.7,111,198.5c49.8,58.8,109.4,106.7,177.4,142.4c70.3,36.9,146.4,59,226.2,65.6c79.8,6.7,158.5-2.5,234-27.3
					c72.9-23.9,139.7-61.3,198.5-111c58.8-49.8,106.7-109.4,142.4-177.4c36.9-70.3,59-146.4,65.6-226.2c6.6-79.8-2.5-158.5-27.3-234
					c-23.9-72.9-61.3-139.7-111-198.5S985.4,179.9,917.5,144.3c-70.3-36.9-146.4-59-226.2-65.6C674.5,77.3,657.7,76.6,641,76.6z"/>
			</g>
			<g>
				<path class="st2" d="M643,1274.4c-16.3,0-32.6-0.7-48.9-2c-81.4-6.5-159-28.7-230.8-66c-69.3-36.1-130.3-84.7-181.3-144.4
					C131,1002.3,92.7,934.4,68,860.2c-25.5-76.8-35.2-157-28.7-238.3c6.5-81.4,28.7-159,66-230.8c36.1-69.3,84.7-130.3,144.4-181.3
					c59.8-50.9,127.7-89.3,201.8-113.9c76.8-25.5,157-35.2,238.3-28.7c81.4,6.5,159,28.7,230.8,66c69.3,36.1,130.3,84.7,181.3,144.4
					c50.9,59.8,89.3,127.7,113.9,201.8c25.5,76.8,35.2,157,28.7,238.3c-6.5,81.4-28.7,159-66,230.8
					c-36.1,69.3-84.7,130.3-144.4,181.3c-59.8,50.9-127.7,89.3-201.8,113.9C771,1264.2,707.5,1274.4,643,1274.4z M641,67
					c-64.4,0-127.7,10.2-188.9,30.5c-74,24.6-141.7,62.8-201.3,113.6c-59.6,50.8-108,111.6-144,180.7
					c-37.2,71.6-59.4,149-65.8,230.1c-6.5,81.1,3.2,161.1,28.6,237.7c24.6,74,62.8,141.7,113.6,201.3c50.8,59.6,111.6,108,180.7,144
					c71.6,37.2,149,59.4,230.1,65.8c81.1,6.5,161.1-3.2,237.7-28.6c74-24.6,141.7-62.8,201.3-113.6c59.6-50.8,108-111.6,144-180.7
					c37.2-71.6,59.4-149,65.8-230.1c6.5-81.1-3.2-161.1-28.6-237.7c-24.6-74-62.8-141.7-113.6-201.3c-50.8-59.6-111.6-108-180.7-144
					c-71.6-37.2-149-59.4-230.1-65.8C673.5,67.6,657.3,67,641,67z"/>
			</g>
			<g>
				<path class="st2" d="M643,1284c-15.8,0-31.6-0.6-47.5-1.8c-82.7-6.3-161.6-28.6-234.7-66.3c-70.6-36.4-132.7-85.5-184.7-146
					c-52-60.5-91.1-129.4-116.4-204.6c-26.2-77.9-36.3-159.3-30-242s28.6-161.6,66.3-234.7c36.4-70.6,85.5-132.7,146-184.7
					c60.5-52,129.4-91.1,204.6-116.4c77.9-26.2,159.3-36.3,242-30c82.7,6.3,161.6,28.6,234.7,66.3c70.6,36.4,132.7,85.5,184.7,146
					c52,60.5,91.1,129.4,116.4,204.6c26.2,77.9,36.3,159.3,30,242s-28.6,161.6-66.3,234.7c-36.4,70.6-85.5,132.7-146,184.7
					c-60.5,52-129.4,91.1-204.6,116.4C774.5,1273.3,709.3,1284,643,1284z M641.1,57.4c-66.1,0-131.2,10.6-193.9,31.7
					c-75.1,25.2-143.7,64.3-204.1,116.1C182.7,257,133.7,319,97.4,389.4c-37.6,72.9-59.8,151.6-66.1,234
					c-6.3,82.4,3.8,163.6,29.9,241.3c25.2,75.1,64.3,143.7,116.1,204.1c51.8,60.3,113.8,109.3,184.1,145.6
					c72.9,37.6,151.6,59.8,234,66.1c82.4,6.3,163.6-3.8,241.3-29.9c75.1-25.2,143.7-64.3,204.1-116.1
					c60.3-51.8,109.3-113.8,145.6-184.1c37.6-72.9,59.8-151.6,66.1-234c6.3-82.4-3.8-163.6-29.9-241.3
					c-25.2-75.1-64.3-143.7-116.1-204.1c-51.8-60.3-113.8-109.3-184.1-145.6c-72.9-37.6-151.6-59.8-234-66.1
					C672.6,58,656.8,57.4,641.1,57.4z"/>
			</g>
			<g>
				<path class="st2" d="M642.9,1293.5c-15.3,0-30.7-0.6-46.1-1.7c-84-6.1-164.2-28.5-238.6-66.5c-71.8-36.7-135.1-86.4-188-147.7
					c-53-61.3-93-131.1-118.9-207.4c-26.9-79-37.4-161.7-31.3-245.7c6.1-84,28.5-164.2,66.5-238.6c36.7-71.8,86.4-135.1,147.7-188
					c61.3-53,131.1-93,207.4-118.9c79-26.9,161.7-37.4,245.7-31.3c84,6.1,164.2,28.5,238.6,66.5c71.8,36.7,135.1,86.4,188,147.7
					c53,61.3,93,131,118.9,207.4c26.9,79,37.4,161.7,31.3,245.7c-6.1,84-28.5,164.2-66.5,238.6c-36.7,71.8-86.4,135.1-147.7,188
					c-61.3,53-131,93-207.4,118.9C778,1282.5,711,1293.5,642.9,1293.5z M641.1,47.8c-67.9,0-134.7,11-199,32.9
					c-76.1,25.9-145.7,65.8-206.8,118.6c-61.1,52.8-110.7,115.9-147.3,187.5C50,461,27.7,541,21.6,624.8
					c-6.1,83.7,4.4,166.2,31.2,245c25.9,76.1,65.8,145.7,118.6,206.8c52.8,61.1,115.9,110.7,187.5,147.3
					c74.1,37.9,154.2,60.2,237.9,66.3c83.7,6.1,166.2-4.4,245-31.2c76.1-25.9,145.7-65.8,206.8-118.6
					c61.1-52.8,110.7-115.9,147.3-187.5c37.9-74.1,60.2-154.2,66.3-237.9c6.1-83.7-4.4-166.2-31.2-245
					c-25.9-76.1-65.8-145.7-118.6-206.8c-52.8-61.1-115.9-110.7-187.5-147.3C850.8,77.9,770.8,55.6,687,49.5
					C671.7,48.4,656.3,47.8,641.1,47.8z"/>
			</g>
			<g>
				<path class="st2" d="M642.9,1303.1c-14.9,0-29.7-0.5-44.7-1.6c-85.3-5.9-166.9-28.3-242.5-66.7c-73-37-137.4-87.3-191.4-149.3
					c-54-62-94.9-132.7-121.5-210.2c-27.5-80.2-38.5-164-32.6-249.3S38.6,459.2,77,383.6c37-73,87.3-137.4,149.3-191.4
					c62-54,132.7-94.9,210.2-121.5c80.2-27.5,164-38.5,249.3-32.6C771,44,852.6,66.5,928.2,104.8c73,37,137.4,87.3,191.4,149.3
					c54,62,94.9,132.7,121.5,210.2c27.5,80.2,38.5,164,32.6,249.3c-5.9,85.3-28.3,166.9-66.7,242.5c-37,73-87.3,137.4-149.3,191.4
					c-62,54-132.7,94.9-210.2,121.5C781.5,1291.7,712.8,1303.1,642.9,1303.1z M641.1,38.2c-69.7,0-138.2,11.4-204.1,34.1
					c-77.2,26.5-147.8,67.3-209.6,121.2c-61.9,53.9-112,118.1-148.9,190.9c-38.2,75.4-60.6,156.8-66.5,241.8
					C6,711.3,17,794.9,44.5,874.9c26.5,77.2,67.3,147.8,121.2,209.6c53.9,61.9,118.1,112,190.9,148.9
					c75.4,38.2,156.8,60.6,241.8,66.5c85.1,5.9,168.7-5.1,248.7-32.5c77.2-26.5,147.8-67.3,209.6-121.2
					c61.9-53.9,112-118.1,148.9-190.9c38.2-75.4,60.6-156.8,66.5-241.8c5.9-85.1-5.1-168.7-32.5-248.7
					c-26.5-77.2-67.3-147.8-121.2-209.6c-53.9-61.9-118.1-112-190.9-148.9C852.1,68,770.7,45.7,685.6,39.8
					C670.7,38.7,655.9,38.2,641.1,38.2z"/>
			</g>
			<g>
				<path class="st2" d="M642.9,1312.7c-14.4,0-28.8-0.5-43.3-1.4c-86.6-5.7-169.5-28.2-246.3-66.9
					c-74.2-37.3-139.8-88.1-194.8-150.9c-55-62.8-96.7-134.4-124-212.9C6.3,799.2-5.1,714.1,0.6,627.5
					C6.3,540.9,28.8,458,67.5,381.2c37.3-74.2,88.1-139.8,150.9-194.8c62.8-55,134.4-96.7,212.9-124c81.3-28.2,166.4-39.6,253-33.9
					c86.6,5.7,169.5,28.2,246.3,66.9c74.2,37.3,139.8,88.1,194.8,150.9c55,62.8,96.7,134.4,124,212.9c28.2,81.3,39.6,166.4,33.9,253
					c-5.7,86.6-28.2,169.5-66.9,246.3c-37.3,74.2-88.1,139.8-150.9,194.8c-62.8,55-134.4,96.7-212.9,124
					C785,1300.8,714.6,1312.7,642.9,1312.7z M641.1,28.6c-71.5,0-141.7,11.8-209.2,35.3c-78.3,27.2-149.8,68.8-212.4,123.7
					c-62.6,54.9-113.3,120.3-150.5,194.3c-38.6,76.7-61,159.3-66.7,245.7C-3.5,714,7.9,798.9,36,880
					c27.2,78.3,68.8,149.8,123.7,212.4C214.6,1155,280,1205.7,354,1242.9c76.7,38.6,159.3,61,245.7,66.7
					c86.4,5.7,171.3-5.7,252.4-33.8c78.3-27.2,149.8-68.8,212.4-123.7s113.3-120.3,150.5-194.3c38.6-76.7,61-159.3,66.7-245.7
					c5.7-86.4-5.7-171.3-33.8-252.4c-27.2-78.3-68.8-149.8-123.7-212.4S1004,134,930,96.8c-76.7-38.6-159.3-61-245.7-66.7
					C669.8,29.1,655.4,28.6,641.1,28.6z"/>
			</g>
			<g>
				<path class="st2" d="M642.9,1322.2c-13.9,0-27.9-0.4-41.8-1.3c-87.9-5.5-172.1-28.1-250.2-67.1c-75.5-37.7-142.1-89-198.2-152.5
					c-56-63.6-98.6-136.1-126.5-215.7C-2.7,803.2-14.6,716.8-9.1,628.9S19,456.8,58,378.7c37.7-75.5,89-142.1,152.5-198.2
					c63.6-56,136.1-98.6,215.7-126.5C508.7,25.1,595,13.2,682.9,18.8c87.9,5.5,172.1,28.1,250.2,67.1
					c75.5,37.7,142.1,89,198.2,152.5c56,63.6,98.6,136.1,126.5,215.7c28.9,82.4,40.8,168.8,35.2,256.6
					c-5.5,87.9-28.1,172.1-67.1,250.2c-37.7,75.5-89,142.1-152.5,198.2c-63.6,56-136.1,98.6-215.7,126.5
					C788.4,1310,716.4,1322.2,642.9,1322.2z M641.1,19c-73.3,0-145.2,12.2-214.3,36.5C347.4,83.3,275,125.8,211.6,181.7
					C148.2,237.6,97,304.1,59.4,379.4C20.5,457.3-2,541.3-7.5,629s6.3,173.8,35.2,256c27.9,79.4,70.3,151.8,126.2,215.2
					s122.4,114.6,197.7,152.2c77.9,38.9,161.9,61.4,249.6,66.9c87.7,5.5,173.8-6.3,256-35.2c79.4-27.9,151.8-70.3,215.2-126.2
					c63.4-55.9,114.6-122.4,152.2-197.7c38.9-77.9,61.4-161.9,66.9-249.6c5.5-87.7-6.3-173.8-35.2-256
					c-27.9-79.4-70.3-151.8-126.2-215.2c-55.9-63.4-122.4-114.6-197.7-152.2c-77.9-38.9-161.9-61.4-249.6-66.9
					C668.9,19.4,655,19,641.1,19z"/>
			</g>
			<g>
				<path class="st2" d="M642.9,1331.8c-13.4,0-26.9-0.4-40.4-1.2c-89.2-5.3-174.7-28-254.1-67.3c-76.7-38-144.5-89.9-201.6-154.2
					c-57.1-64.3-100.5-137.8-129-218.5c-29.6-83.5-41.9-171.1-36.5-260.3c5.3-89.2,28-174.7,67.3-254.1
					c38-76.7,89.9-144.5,154.2-201.6c64.3-57.1,137.8-100.5,218.5-129C504.7,16,592.3,3.7,681.5,9.1c89.2,5.3,174.7,28,254.1,67.3
					c76.7,38,144.5,89.9,201.6,154.2c57.1,64.3,100.5,137.8,129,218.5c29.6,83.5,41.9,171.1,36.5,260.3
					c-5.3,89.2-28,174.7-67.3,254.1c-38,76.7-89.9,144.5-154.2,201.6c-64.3,57.1-137.8,100.5-218.5,129
					C791.9,1319.2,718.1,1331.8,642.9,1331.8z M641.1,9.4C566,9.4,492.4,22,421.7,47.1c-80.5,28.5-153.8,71.8-218,128.8
					C139.6,232.7,87.8,300.4,49.9,376.9c-39.2,79.2-61.8,164.5-67.2,253.5c-5.3,89,6.9,176.4,36.5,259.7
					C47.7,970.6,91,1044,148,1108.1s124.6,115.9,201.1,153.8c79.2,39.2,164.5,61.8,253.5,67.2c89,5.3,176.4-6.9,259.7-36.5
					c80.5-28.5,153.8-71.8,218-128.8c64.2-56.9,115.9-124.6,153.8-201.1c39.2-79.2,61.8-164.5,67.2-253.5
					c5.3-89-6.9-176.4-36.5-259.7c-28.5-80.5-71.8-153.8-128.8-218c-56.9-64.2-124.6-115.9-201.1-153.8
					c-79.2-39.2-164.5-61.8-253.5-67.2C667.9,9.8,654.5,9.4,641.1,9.4z"/>
			</g>
			<g>
				<path class="st2" d="M642.9,1341.4c-13,0-26-0.4-39-1.1c-90.5-5.1-177.3-27.9-258-67.5C268,1234.5,199.1,1182.1,141,1117
					S38.6,977.5,9.4,895.7c-30.3-84.6-43-173.5-37.9-264s27.9-177.3,67.5-258c38.3-77.9,90.7-146.9,155.8-204.9
					c65.1-58.1,139.5-102.3,221.3-131.6c84.6-30.3,173.5-43,264-37.9c90.5,5.1,177.3,27.9,258,67.5
					c77.9,38.3,146.9,90.7,204.9,155.8c58.1,65.1,102.3,139.5,131.6,221.3c30.3,84.6,43,173.5,37.9,264
					c-5.1,90.5-27.9,177.3-67.5,258c-38.3,77.9-90.7,146.9-155.8,204.9c-65.1,58.1-139.5,102.3-221.3,131.6
					C795.4,1328.3,719.9,1341.4,642.9,1341.4z M641.1-0.2c-76.8,0-152.2,13-224.5,38.9C335.1,67.8,260.8,112,195.8,169.9
					C130.9,227.9,78.6,296.7,40.4,374.4C0.8,454.9-21.8,541.5-27,631.8c-5.1,90.3,7.6,178.9,37.8,263.4
					C40,976.8,84.1,1051.1,142.1,1116c57.9,64.9,126.7,117.2,204.5,155.5c80.5,39.6,167.1,62.2,257.4,67.4
					c90.3,5.1,178.9-7.6,263.4-37.8c81.6-29.2,155.9-73.3,220.8-131.3s117.2-126.7,155.5-204.5c39.6-80.5,62.2-167.1,67.4-257.4
					c5.1-90.3-7.6-178.9-37.8-263.4c-29.2-81.6-73.3-155.9-131.3-220.8S1015.2,106.5,937.4,68.2C856.9,28.7,770.3,6,680,0.9
					C667,0.1,654-0.2,641.1-0.2z"/>
			</g>
			<g>
				<path class="st2" d="M642.9,1351c-12.5,0-25-0.3-37.6-1c-91.8-5-179.9-27.7-261.9-67.7c-79.1-38.6-149.2-91.6-208.3-157.4
					C76,1059,30.9,983.6,1,900.8C-29.9,815-43.1,725-38.1,633.2s27.7-179.9,67.7-261.9C68.2,292.1,121.2,222.1,187,163
					c65.8-59.1,141.2-104.2,224.1-134.1c85.8-30.9,175.8-44.1,267.6-39.2c91.8,5,179.9,27.7,261.9,67.7
					c79.1,38.6,149.2,91.6,208.3,157.4c59.1,65.8,104.2,141.2,134.1,224.1c30.9,85.8,44.1,175.8,39.2,267.6
					c-5,91.8-27.7,179.9-67.7,261.9c-38.6,79.1-91.6,149.2-157.4,208.3c-65.8,59.1-141.2,104.2-224.1,134.1
					C798.9,1337.5,721.7,1351,642.9,1351z M641.1-9.9c-78.6,0-155.7,13.4-229.6,40.1C328.9,60.1,253.7,105.1,188,164
					C122.3,223,69.4,293,30.9,371.9C-9,453.7-31.8,541.6-36.7,633.2c-4.9,91.6,8.2,181.5,39.1,267.1
					c29.8,82.7,74.8,157.9,133.8,223.6c59,65.7,128.9,118.5,207.9,157.1c81.8,39.9,169.7,62.6,261.3,67.6c12.5,0.7,25,1,37.5,1
					c78.6,0,155.7-13.4,229.6-40.1c82.7-29.8,157.9-74.8,223.6-133.8c65.7-59,118.5-128.9,157.1-207.9
					c39.9-81.8,62.6-169.7,67.6-261.3c4.9-91.6-8.2-181.5-39.1-267.1c-29.8-82.7-74.8-157.9-133.8-223.6
					c-59-65.7-128.9-118.5-207.9-157.1C858.1,18.8,770.2-3.9,678.6-8.9C666.1-9.5,653.6-9.9,641.1-9.9z"/>
			</g>
			<g>
				<path class="st2" d="M642.9,1360.6c-12,0-24.1-0.3-36.1-0.9c-93.1-4.8-182.5-27.6-265.7-67.9c-80.4-38.9-151.6-92.5-211.7-159
					S23.2,989.8-7.4,905.9C-39,819-52.6,727.7-47.8,634.6c4.8-93.1,27.6-182.5,67.9-265.7c38.9-80.4,92.5-151.6,159-211.7
					S322.1,51,406,20.5C492.9-11.1,584.1-24.8,677.3-20C770.4-15.2,859.8,7.6,943,47.9c80.4,38.9,151.6,92.5,211.7,159
					s106.1,142.9,136.6,226.8c31.6,86.9,45.2,178.2,40.5,271.3c-4.8,93.1-27.6,182.5-67.9,265.7c-38.9,80.4-92.5,151.6-159,211.7
					S961.9,1288.6,878,1319.2C802.4,1346.7,723.5,1360.6,642.9,1360.6z M641.1-19.5c-80.4,0-159.2,13.9-234.7,41.3
					c-83.8,30.5-159.9,76.4-226.4,136.3c-66.5,60-119.9,131.1-158.7,211.3c-40.2,83-63,172.3-67.8,265.2
					c-4.8,92.9,8.8,184,40.4,270.7c30.5,83.8,76.4,159.9,136.3,226.4c60,66.5,131.1,119.9,211.3,158.7c83,40.2,172.3,63,265.2,67.8
					c92.9,4.8,184-8.8,270.7-40.4c83.8-30.5,159.9-76.4,226.4-136.3c66.5-60,119.9-131.1,158.7-211.3c40.2-83,63-172.3,67.8-265.2
					c4.8-92.9-8.8-184-40.4-270.7c-30.5-83.8-76.4-159.9-136.3-226.4c-60-66.5-131.1-119.9-211.3-158.7
					c-83-40.2-172.3-63-265.2-67.8C665.1-19.2,653.1-19.5,641.1-19.5z"/>
			</g>
			<g>
				<path class="st2" d="M642.8,1370.2c-11.5,0-23.1-0.3-34.7-0.8c-94.4-4.6-185.1-27.5-269.6-68.2c-81.6-39.3-154-93.3-215.1-160.7
					S15.5,995.9-15.7,910.9C-48,822.9-62.1,730.4-57.5,636c4.6-94.4,27.5-185.1,68.2-269.6c39.3-81.6,93.3-154,160.7-215.1
					C238.7,90.1,315.9,43.3,400.9,12.1c88-32.3,180.5-46.4,274.9-41.8C770.3-25.1,861-2.2,945.5,38.5
					c81.6,39.3,154,93.3,215.1,160.7c61.1,67.4,107.9,144.6,139.1,229.6c32.3,88,46.4,180.5,41.8,274.9s-27.5,185.1-68.2,269.6
					c-39.3,81.6-93.3,154-160.7,215.1c-67.4,61.1-144.6,107.9-229.6,139.1C805.9,1355.9,725.2,1370.2,642.8,1370.2z M641.2-29.1
					c-82.2,0-162.7,14.3-239.8,42.5c-84.8,31.1-161.9,77.9-229.2,138.9C105,213.3,51.1,285.5,11.9,367
					c-40.6,84.3-63.5,174.8-68,269.1c-4.6,94.2,9.5,186.6,41.7,274.4c31.1,84.8,77.9,161.9,138.9,229.2
					c61,67.2,133.2,121.2,214.7,160.4c84.3,40.6,174.8,63.5,269.1,68c94.2,4.6,186.6-9.5,274.4-41.7
					c84.8-31.1,161.9-77.9,229.2-138.9c67.2-61,121.2-133.2,160.4-214.7c40.6-84.3,63.5-174.8,68-269.1
					c4.6-94.2-9.5-186.6-41.7-274.4c-31.1-84.8-77.9-161.9-138.9-229.2c-61-67.2-133.2-121.2-214.7-160.4
					C860.6-0.9,770-23.7,675.8-28.3C664.2-28.9,652.7-29.1,641.2-29.1z"/>
			</g>
			<g>
				<path class="st2" d="M642.8,1379.8c-11.1,0-22.2-0.3-33.3-0.8c-95.7-4.4-187.8-27.4-273.5-68.4
					c-82.8-39.6-156.3-94.2-218.5-162.3C55.4,1080.3,7.8,1002.1-24.1,916c-33-89.1-47.5-182.9-43.1-278.6
					c4.4-95.7,27.4-187.8,68.4-273.5c39.6-82.8,94.2-156.3,162.3-218.5C231.6,83.3,309.8,35.6,395.8,3.7
					c89.1-33,182.9-47.5,278.6-43.1C770.2-35,862.2-12,948,29c82.8,39.6,156.3,94.2,218.5,162.3c62.2,68.1,109.8,146.3,141.7,232.4
					c33,89.1,47.5,182.9,43.1,278.6c-4.4,95.7-27.4,187.8-68.4,273.5c-39.6,82.8-94.2,156.3-162.3,218.5
					c-68.1,62.2-146.3,109.8-232.4,141.7C809.4,1365.1,727,1379.8,642.8,1379.8z M641.2-38.8c-84,0-166.2,14.7-244.9,43.8
					c-85.9,31.8-164,79.4-231.9,141.4c-68,62-122.5,135.4-162,218.1c-40.9,85.6-63.9,177.4-68.2,273c-4.4,95.6,10.1,189.1,43,278.1
					c31.8,85.9,79.4,164,141.4,231.9c62,68,135.4,122.5,218.1,162c85.6,40.9,177.4,63.9,273,68.2c11.1,0.5,22.2,0.8,33.2,0.8
					c84,0,166.2-14.7,244.9-43.8c85.9-31.8,164-79.4,231.9-141.4c68-62,122.5-135.4,162-218.1c40.9-85.6,63.9-177.4,68.2-273
					c4.4-95.6-10.1-189.1-43-278.1c-31.8-85.9-79.4-164-141.4-231.9c-62-68-135.4-122.5-218.1-162C861.8-10.7,770-33.7,674.4-38
					C663.3-38.5,652.2-38.8,641.2-38.8z"/>
			</g>
			<g>
				<path class="st2" d="M642.8,1389.4c-10.6,0-21.2-0.2-31.8-0.7c-97.1-4.2-190.4-27.3-277.4-68.6c-84-39.9-158.7-95.1-221.9-163.9
					C48.5,1087.4,0,1008.2-32.5,921.1c-33.7-90.2-48.6-185.2-44.4-282.3c4.2-97.1,27.3-190.4,68.6-277.4
					c39.9-84,95.1-158.7,163.9-221.9c68.9-63.2,148-111.7,235.2-144.2C481-38.3,576-53.2,673-49.1c97.1,4.2,190.4,27.3,277.4,68.6
					c84,39.9,158.7,95.1,221.9,163.9s111.7,148,144.2,235.2c33.7,90.2,48.6,185.2,44.4,282.3c-4.2,97.1-27.3,190.4-68.6,277.4
					c-39.9,84-95.1,158.7-163.9,221.9c-68.9,63.2-148,111.7-235.2,144.2C812.9,1374.3,728.8,1389.4,642.8,1389.4z M641.2-48.4
					c-85.8,0-169.8,15.1-250,45c-87,32.5-166,80.9-234.7,143.9C87.7,203.6,32.7,278.1-7.1,362c-41.2,86.9-64.3,180-68.5,276.9
					c-4.2,96.9,10.7,191.7,44.3,281.8c32.5,87,80.9,166,143.9,234.7c63.1,68.7,137.6,123.8,221.5,163.6
					c86.9,41.2,180,64.3,276.9,68.5c96.9,4.2,191.7-10.7,281.8-44.3c87-32.5,166-80.9,234.7-143.9
					c68.7-63.1,123.8-137.6,163.6-221.5c41.2-86.9,64.3-180,68.5-276.9c4.2-96.9-10.7-191.7-44.3-281.8
					c-32.5-87-80.9-166-143.9-234.7c-63.1-68.7-137.6-123.8-221.5-163.6C863-20.5,769.9-43.6,673-47.8
					C662.4-48.2,651.8-48.4,641.2-48.4z"/>
			</g>
			<g>
				<path class="st2" d="M642.8,1399c-10.1,0-20.2-0.2-30.4-0.6c-98.4-4-193-27.1-281.3-68.8c-85.3-40.2-161-95.9-225.2-165.6
					C41.7,1094.4-7.7,1014.4-40.9,926.1c-34.3-91.4-49.7-187.6-45.7-285.9c4-98.4,27.1-193,68.8-281.3
					c40.2-85.3,95.9-161,165.6-225.2S297.4,20.1,385.7-13c91.4-34.3,187.6-49.7,285.9-45.7c98.4,4,193,27.1,281.3,68.8
					c85.3,40.2,161,95.9,225.2,165.6c64.2,69.6,113.6,149.7,146.7,237.9c34.3,91.4,49.7,187.6,45.7,285.9
					c-4,98.4-27.1,193-68.8,281.3c-40.2,85.3-95.9,161-165.6,225.2c-69.6,64.2-149.7,113.6-237.9,146.7
					C816.4,1383.5,730.5,1399,642.8,1399z M641.2-58.1c-87.6,0-173.3,15.5-255.1,46.3c-88.1,33.1-168,82.4-237.5,146.5
					C79.1,198.7,23.5,274.4-16.7,359.5c-41.6,88.1-64.7,182.6-68.7,280.8c-4,98.2,11.4,194.2,45.6,285.4
					c33.1,88.1,82.4,168,146.5,237.5c64.1,69.5,139.7,125.1,224.8,165.3c88.1,41.6,182.6,64.7,280.8,68.7
					c98.2,4,194.2-11.4,285.4-45.6c88.1-33.1,168-82.4,237.5-146.5c69.5-64.1,125.1-139.7,165.3-224.8
					c41.6-88.1,64.7-182.6,68.7-280.8c4-98.2-11.4-194.2-45.6-285.4c-33.1-88.1-82.4-168-146.5-237.5
					c-64.1-69.5-139.7-125.1-224.8-165.3c-88.1-41.6-182.6-64.7-280.8-68.7C661.4-57.9,651.3-58.1,641.2-58.1z"/>
			</g>
			<g>
				<path class="st2" d="M642.8,1408.7c-9.6,0-19.3-0.2-29-0.6c-99.7-3.8-195.6-27-285.2-69c-86.5-40.5-163.4-96.8-228.6-167.2
					c-65.2-70.4-115.4-151.4-149.2-240.7c-35-92.5-50.8-189.9-47-289.6c3.8-99.7,27-195.6,69-285.2C13.3,270,69.5,193.1,139.9,127.9
					S291.3,12.4,380.6-21.4c92.5-35,189.9-50.8,289.6-47c99.7,3.8,195.6,27,285.2,69c86.5,40.5,163.4,96.8,228.6,167.2
					s115.4,151.4,149.2,240.7c35,92.5,50.8,189.9,47,289.6c-3.8,99.7-27,195.6-69,285.2c-40.5,86.5-96.8,163.4-167.2,228.6
					c-70.4,65.2-151.4,115.4-240.7,149.2C819.9,1392.7,732.3,1408.7,642.8,1408.7z M641.2-67.8c-89.4,0-176.8,15.9-260.2,47.5
					c-89.2,33.8-170,83.9-240.3,149S14.3,270.6-26.2,357C-68.1,446.4-91.2,542.2-95,641.7c-3.8,99.5,12,196.8,47,289.1
					c33.8,89.2,83.9,170,149,240.3c65.1,70.3,141.9,126.4,228.2,166.9c89.4,41.9,185.2,65.1,284.7,68.9c99.5,3.8,196.8-12,289.1-47
					c89.2-33.8,170-83.9,240.3-149c70.3-65.1,126.4-141.9,166.9-228.2c41.9-89.4,65.1-185.2,68.9-284.7s-12-196.8-47-289.1
					c-33.8-89.2-83.9-170-149-240.3S1041.2,42.2,954.8,1.7c-89.4-41.9-185.2-65.1-284.7-68.9C660.5-67.6,650.9-67.8,641.2-67.8z"/>
			</g>
			<g>
				<path class="st2" d="M642.7,1418.3c-9.2,0-18.3-0.2-27.5-0.5c-101-3.6-198.2-26.9-289-69.2c-87.7-40.9-165.8-97.7-232-168.8
					c-66.2-71.2-117.3-153.1-151.8-243.5C-93.3,842.7-109.6,744-106,643c3.6-101,26.9-198.2,69.2-289
					c40.9-87.7,97.7-165.8,168.8-232C203.2,55.8,285.1,4.7,375.6-29.8c93.6-35.7,192.3-52,293.2-48.3c101,3.6,198.2,26.9,289,69.2
					c87.7,40.9,165.8,97.7,232,168.8c66.2,71.2,117.3,153.1,151.8,243.5c35.7,93.6,52,192.3,48.3,293.2
					c-3.6,101-26.9,198.2-69.2,289c-40.9,87.7-97.7,165.8-168.8,232c-71.2,66.2-153.1,117.3-243.5,151.8
					C823.4,1401.9,734.1,1418.3,642.7,1418.3z M641.3-77.4C550-77.4,460.9-61.1,376-28.7C285.7,5.8,203.9,56.7,132.9,122.9
					C61.8,189,5.1,266.9-35.7,354.5c-42.2,90.7-65.5,187.8-69.1,288.6s12.6,199.3,48.3,292.8c34.4,90.3,85.4,172.1,151.5,243.1
					s144.1,127.7,231.6,168.5c90.7,42.2,187.8,65.5,288.6,69.1c100.8,3.6,199.3-12.6,292.8-48.3c90.3-34.4,172.1-85.4,243.1-151.5
					c71-66.1,127.7-144.1,168.5-231.6c42.2-90.7,65.5-187.8,69.1-288.6c3.6-100.8-12.6-199.3-48.3-292.8
					c-34.4-90.3-85.4-172.1-151.5-243.1C1122.8,89.7,1044.9,33,957.3-7.8c-90.7-42.2-187.8-65.5-288.6-69.1
					C659.6-77.3,650.4-77.4,641.3-77.4z"/>
			</g>
			<g>
				<path class="st2" d="M642.7,1427.9c-8.7,0-17.4-0.1-26.1-0.4c-102.3-3.4-200.8-26.8-292.9-69.4
					c-88.9-41.2-168.1-98.5-235.4-170.4S-30.9,1032.9-66,941.4c-36.4-94.7-53.1-194.6-49.7-296.9c3.4-102.3,26.8-200.8,69.4-292.9
					C-5,262.6,52.3,183.4,124.2,116.1C196.1,48.9,279-3,370.5-38.2c94.7-36.4,194.6-53.1,296.9-49.7C769.7-84.4,868.2-61,960.3-18.4
					c88.9,41.2,168.1,98.5,235.4,170.4c67.2,71.9,119.2,154.8,154.3,246.3c36.4,94.7,53.1,194.6,49.7,296.9
					c-3.4,102.3-26.8,200.8-69.4,292.9c-41.2,88.9-98.5,168.1-170.4,235.4s-154.8,119.2-246.3,154.3
					C826.9,1411.1,735.9,1427.9,642.7,1427.9z M641.3-87.1c-93,0-183.9,16.8-270.4,50C279.5-2,196.8,49.8,125,117
					C53.2,184.1-4.1,263.2-45.2,352c-42.6,91.9-65.9,190.3-69.3,292.5c-3.4,102.1,13.3,201.9,49.6,296.5
					c35.1,91.4,86.9,174.1,154.1,245.9c67.1,71.8,146.2,129.1,235,170.2c91.9,42.6,190.3,65.9,292.5,69.3c8.7,0.3,17.4,0.4,26.1,0.4
					c93,0,183.9-16.8,270.4-50c91.4-35.1,174.1-86.9,245.9-154.1c71.8-67.1,129.1-146.2,170.2-235c42.6-91.9,65.9-190.3,69.3-292.5
					c3.4-102.1-13.3-201.9-49.6-296.5c-35.1-91.4-86.9-174.1-154.1-245.9c-67.1-71.8-146.2-129.1-235-170.2
					c-91.9-42.6-190.3-65.9-292.5-69.3C658.7-86.9,650-87.1,641.3-87.1z"/>
			</g>
			<g>
				<path class="st2" d="M642.7,1437.6c-8.2,0-16.4-0.1-24.7-0.4c-103.6-3.2-203.4-26.7-296.8-69.6
					c-90.2-41.5-170.5-99.4-238.8-172.1c-68.3-72.7-121-156.5-156.8-249c-37.1-95.9-54.2-197-51-300.6
					c3.2-103.6,26.7-203.4,69.6-296.8c41.5-90.2,99.4-170.5,172.1-238.8C189,42,272.8-10.7,365.4-46.5c95.9-37.1,197-54.2,300.6-51
					c103.6,3.2,203.4,26.7,296.8,69.6c90.2,41.5,170.5,99.4,238.8,172.1c68.3,72.7,121,156.5,156.8,249c37.1,95.9,54.2,197,51,300.6
					s-26.7,203.4-69.6,296.8c-41.5,90.2-99.4,170.5-172.1,238.8c-72.7,68.3-156.5,121-249,156.8
					C830.4,1420.3,737.6,1437.6,642.7,1437.6z M641.3-96.8c-94.8,0-187.4,17.2-275.5,51.3C273.4-9.7,189.7,42.9,117.1,111.1
					C44.6,179.3-13.2,259.5-54.7,349.5c-42.9,93.2-66.3,192.9-69.5,296.4c-3.2,103.4,13.9,204.4,50.9,300.1
					c35.7,92.4,88.4,176.1,156.6,248.7c68.2,72.6,148.4,130.4,238.4,171.8c93.2,42.9,192.9,66.3,296.4,69.5
					c103.4,3.2,204.4-13.9,300.1-50.9c92.4-35.7,176.1-88.4,248.7-156.6c72.6-68.2,130.4-148.4,171.8-238.4
					c42.9-93.2,66.3-192.9,69.5-296.4s-13.9-204.4-50.9-300.1c-35.7-92.4-88.4-176.1-156.6-248.7
					c-68.2-72.6-148.4-130.4-238.4-171.8c-93.2-42.9-192.9-66.3-296.4-69.5C657.7-96.6,649.5-96.8,641.3-96.8z"/>
			</g>
			<g>
				<path class="st2" d="M642.6,1447.2c-7.7,0-15.5-0.1-23.2-0.3c-104.9-3-206.1-26.5-300.7-69.8
					c-91.4-41.8-172.9-100.3-242.1-173.7C7.3,1129.9-46.3,1045.2-82.7,951.5c-37.7-97-55.3-199.3-52.3-304.2s26.5-206.1,69.8-300.7
					c41.8-91.4,100.3-172.9,173.7-242.1C182,35.2,266.7-18.5,360.3-54.9c97-37.7,199.3-55.3,304.2-52.3
					c104.9,3,206.1,26.5,300.7,69.8c91.4,41.8,172.9,100.3,242.1,173.7s122.9,158.2,159.3,251.8c37.7,97,55.3,199.3,52.3,304.2
					c-3,104.9-26.5,206.1-69.8,300.7c-41.8,91.4-100.3,172.9-173.7,242.1c-73.4,69.3-158.2,122.9-251.8,159.3
					C833.9,1429.5,739.4,1447.2,642.6,1447.2z M641.4-106.4c-96.7,0-190.9,17.6-280.6,52.5C267.2-17.5,182.6,36,109.3,105.2
					C35.9,174.4-22.4,255.8-64.2,347c-43.2,94.5-66.7,195.5-69.7,300.3c-3,104.8,14.5,207,52.2,303.8
					c36.4,93.5,89.9,178.1,159.1,251.5s150.5,131.7,241.8,173.5c94.5,43.2,195.5,66.7,300.3,69.7c104.8,3,207-14.5,303.8-52.2
					c93.5-36.4,178.1-89.9,251.5-159.1s131.7-150.5,173.5-241.8c43.2-94.5,66.7-195.5,69.7-300.3c3-104.8-14.5-207-52.2-303.8
					c-36.4-93.5-89.9-178.1-159.1-251.5C1137.4,63.8,1056.1,5.4,964.8-36.4c-94.5-43.2-195.5-66.7-300.3-69.7
					C656.8-106.3,649.1-106.4,641.4-106.4z"/>
			</g>
			<g>
				<path class="st2" d="M642.6,1456.8c-7.2,0-14.5-0.1-21.8-0.3c-106.2-2.9-208.7-26.4-304.6-70.1
					c-92.6-42.1-175.2-101.1-245.5-175.3C0.4,1137-54,1051.3-91.1,956.6c-38.4-98.1-56.4-201.7-53.6-307.9
					c2.9-106.2,26.4-208.7,70.1-304.6c42.1-92.6,101.1-175.2,175.3-245.5C174.9,28.3,260.5-26.2,355.3-63.3
					c98.1-38.4,201.7-56.4,307.9-53.6c106.2,2.9,208.7,26.4,304.6,70.1c92.6,42.1,175.2,101.1,245.5,175.3
					c70.3,74.2,124.8,159.9,161.9,254.6c38.4,98.1,56.4,201.7,53.6,307.9c-2.9,106.2-26.4,208.7-70.1,304.6
					c-42.1,92.6-101.1,175.2-175.3,245.5s-159.9,124.8-254.6,161.9C837.4,1438.7,741.2,1456.8,642.6,1456.8z M641.4-116.1
					c-98.5,0-194.5,18.1-285.7,53.8C261-25.3,175.5,29.1,101.4,99.4c-74.1,70.2-133,152.7-175.1,245.2
					c-43.6,95.8-67.1,198.1-70,304.2c-2.9,106.1,15.2,209.5,53.5,307.5c37.1,94.6,91.4,180.2,161.7,254.3
					c70.2,74.1,152.7,133,245.2,175.1c95.8,43.6,198.1,67.1,304.2,70c106.1,2.9,209.5-15.2,307.5-53.5
					c94.6-37.1,180.2-91.4,254.3-161.7c74.1-70.2,133-152.7,175.1-245.2c43.6-95.8,67.1-198.1,70-304.2
					c2.9-106.1-15.2-209.5-53.5-307.5c-37.1-94.6-91.4-180.2-161.7-254.3c-70.2-74.1-152.7-133-245.2-175.1
					c-95.8-43.6-198.1-67.1-304.2-70C655.9-116,648.6-116.1,641.4-116.1z"/>
			</g>
			<g>
				<path class="st2" d="M642.6,1466.5c-6.8,0-13.5-0.1-20.3-0.3c-107.5-2.7-211.3-26.3-308.4-70.3c-93.8-42.5-177.6-102-248.9-177
					c-71.3-75-126.6-161.5-164.4-257.4c-39.1-99.2-57.6-204-54.9-311.5c2.7-107.5,26.3-211.3,70.3-308.4
					c42.5-93.8,102-177.6,177-248.9S254.4-33.9,350.2-71.7c99.2-39.1,204-57.6,311.5-54.9c107.5,2.7,211.3,26.3,308.4,70.3
					c93.8,42.5,177.6,102,248.9,177c71.3,75,126.6,161.5,164.4,257.4c39.1,99.2,57.6,204,54.9,311.5
					c-2.7,107.5-26.3,211.3-70.3,308.4c-42.5,93.8-102,177.6-177,248.9s-161.5,126.6-257.4,164.4
					C840.8,1448,743,1466.5,642.6,1466.5z M641.4-125.8c-100.3,0-198,18.5-290.9,55.1C254.9-33,168.4,22.2,93.5,93.5
					C18.7,164.7-40.8,248.3-83.2,342.1c-43.9,97-67.5,200.7-70.2,308.1c-2.7,107.4,15.8,212.1,54.8,311.2
					c37.7,95.7,93,182.2,164.2,257.1s154.9,134.3,248.6,176.7c97,43.9,200.7,67.5,308.1,70.2c6.8,0.2,13.5,0.3,20.3,0.3
					c100.3,0,198-18.5,290.9-55.1c95.7-37.7,182.2-93,257.1-164.2s134.3-154.9,176.7-248.6c43.9-97,67.5-200.7,70.2-308.1
					c2.7-107.4-15.8-212.1-54.8-311.2c-37.7-95.7-93-182.2-164.2-257.1C1147.1,46.5,1063.5-13,969.8-55.4
					c-97-43.9-200.7-67.5-308.1-70.2C655-125.7,648.2-125.8,641.4-125.8z"/>
			</g>
			<g>
				<path class="st2" d="M642.5,1476.1c-6.3,0-12.6-0.1-18.9-0.2c-108.8-2.5-213.9-26.2-312.3-70.5
					c-95.1-42.8-179.9-102.9-252.3-178.6c-72.3-75.7-128.5-163.2-166.9-260.2c-39.8-100.3-58.7-206.4-56.2-315.2
					c2.5-108.8,26.2-213.9,70.5-312.3C-50.8,244.1,9.3,159.2,85,86.9C160.7,14.5,248.2-41.6,345.1-80
					c100.3-39.8,206.4-58.7,315.2-56.2c108.8,2.5,213.9,26.2,312.3,70.5C1067.7-23,1152.6,37.1,1225,112.8s128.5,163.2,166.9,260.2
					c39.8,100.3,58.7,206.4,56.2,315.2s-26.2,213.9-70.5,312.3c-42.8,95.1-102.9,179.9-178.6,252.3
					c-75.7,72.3-163.2,128.5-260.2,166.9C844.3,1457.2,744.7,1476.1,642.5,1476.1z M641.5-135.5c-102.1,0-201.6,18.9-296,56.4
					C248.7-40.8,161.3,15.3,85.6,87.6C10,159.8-50,244.6-92.7,339.6c-44.2,98.3-67.9,203.3-70.4,311.9
					c-2.5,108.7,16.4,214.6,56.1,314.8c38.4,96.8,94.5,184.2,166.7,259.8c72.3,75.6,157,135.6,252,178.4
					c98.3,44.2,203.3,67.9,311.9,70.4c108.7,2.5,214.6-16.4,314.8-56.1c96.8-38.4,184.2-94.5,259.8-166.7
					c75.6-72.3,135.6-157,178.4-252c44.2-98.3,67.9-203.3,70.4-311.9s-16.4-214.6-56.1-314.8c-38.4-96.8-94.5-184.2-166.7-259.8
					c-72.3-75.6-157-135.6-252-178.4C874-109.1,769-132.8,660.3-135.3C654-135.4,647.7-135.5,641.5-135.5z"/>
			</g>
			<g>
				<path class="st2" d="M642.5,1485.8c-5.8,0-11.6-0.1-17.4-0.2c-110.1-2.3-216.5-26.1-316.2-70.7
					c-96.3-43.1-182.3-103.7-255.7-180.2s-130.4-164.9-169.4-262.9c-40.5-101.5-59.8-208.7-57.5-318.9
					c2.3-110.1,26.1-216.5,70.7-316.2C-60,240.4,0.7,154.4,77.1,81C153.6,7.7,242.1-49.3,340.1-88.4
					c101.5-40.5,208.7-59.8,318.9-57.5c110.1,2.3,216.5,26.1,316.2,70.7c96.3,43.1,182.3,103.7,255.7,180.2
					c73.4,76.5,130.4,164.9,169.4,262.9c40.5,101.5,59.8,208.7,57.5,318.9c-2.3,110.1-26.1,216.5-70.7,316.2
					c-43.1,96.3-103.7,182.3-180.2,255.7c-76.5,73.4-164.9,130.4-262.9,169.4C847.9,1466.4,746.5,1485.8,642.5,1485.8z M641.5-145.2
					c-103.9,0-205.1,19.4-301.1,57.6c-97.9,39-186.2,96-262.6,169.3C1.4,155-59.2,240.9-102.2,337.1
					c-44.6,99.6-68.3,205.8-70.6,315.8c-2.3,110,17,217.2,57.5,318.5c39,97.9,96,186.2,169.3,262.6c73.3,76.4,159.2,136.9,255.4,180
					c99.6,44.6,205.8,68.3,315.8,70.6c110,2.3,217.2-17,318.5-57.5c97.9-39,186.2-96,262.6-169.3c76.4-73.3,136.9-159.2,180-255.4
					c44.6-99.6,68.3-205.8,70.6-315.8s-17-217.2-57.5-318.5c-39-97.9-96-186.2-169.3-262.6c-73.3-76.4-159.2-136.9-255.4-180
					C875.2-119,768.9-142.7,658.9-145C653.1-145.1,647.3-145.2,641.5-145.2z"/>
			</g>
			<g>
				<path class="st2" d="M642.5,1495.5c-5.3,0-10.6,0-16-0.2c-111.4-2.1-219.1-26-320.1-70.9c-97.5-43.4-184.7-104.6-259.1-181.8
					c-74.4-77.2-132.2-166.6-172-265.7c-41.1-102.6-60.9-211.1-58.8-322.5s26-219.1,70.9-320.1C-69.1,236.7-8,149.6,69.3,75.2
					C146.5,0.8,235.9-57.1,335-96.8c102.6-41.1,211.1-60.9,322.5-58.8c111.4,2.1,219.1,26,320.1,70.9
					c97.5,43.4,184.7,104.6,259.1,181.8c74.4,77.2,132.2,166.6,172,265.7c41.1,102.6,60.9,211.1,58.8,322.5
					c-2.1,111.4-26,219.1-70.9,320.1c-43.4,97.5-104.6,184.7-181.8,259.1c-77.2,74.4-166.6,132.2-265.7,172
					C851.4,1475.6,748.3,1495.5,642.5,1495.5z M641.5-154.9c-105.7,0-208.6,19.8-306.2,58.9C236.4-56.3,147.1,1.5,69.9,75.8
					C-7.2,150.1-68.4,237.2-111.7,334.6c-44.9,100.8-68.7,208.4-70.8,319.7c-2.1,111.3,17.7,219.7,58.8,322.2
					c39.7,99,97.5,188.3,171.8,265.4c74.3,77.1,161.4,138.3,258.8,181.6c100.8,44.9,208.4,68.7,319.7,70.8
					c111.3,2.1,219.7-17.7,322.2-58.8c99-39.7,188.3-97.5,265.4-171.8c77.1-74.3,138.3-161.4,181.6-258.8
					c44.9-100.8,68.7-208.4,70.8-319.7c2.1-111.3-17.7-219.7-58.8-322.2c-39.7-99-97.5-188.3-171.8-265.4
					c-74.3-77.1-161.4-138.3-258.8-181.6c-100.8-44.9-208.4-68.7-319.7-70.8C652.2-154.8,646.8-154.9,641.5-154.9z"/>
			</g>
			<g>
				<path class="st2" d="M642.4,1505.1c-4.8,0-9.7,0-14.5-0.1c-112.7-1.9-221.7-25.8-324-71.1c-98.7-43.7-187-105.5-262.4-183.5
					c-75.4-78-134.1-168.3-174.5-268.5c-41.8-103.7-62-213.4-60.1-326.2c1.9-112.7,25.8-221.7,71.1-324
					C-78.3,233-16.6,144.7,61.4,69.3c78-75.4,168.3-134.1,268.5-174.5c103.7-41.8,213.4-62.1,326.2-60.1
					c112.7,1.9,221.7,25.8,324,71.1c98.7,43.7,187,105.5,262.4,183.5c75.4,78,134.1,168.3,174.5,268.5
					c41.8,103.7,62,213.4,60.1,326.2s-25.8,221.7-71.1,324c-43.7,98.7-105.5,187-183.5,262.4c-78,75.4-168.3,134.1-268.5,174.5
					C854.9,1484.9,750.1,1505.1,642.4,1505.1z M641.6-164.6c-107.5,0-212.2,20.2-311.3,60.2C230.2-64,139.9-5.4,62,69.9
					S-77.5,233.5-121.2,332.1c-45.2,102.1-69.1,211-71,323.6c-1.9,112.6,18.3,222.3,60.1,325.8c40.3,100.1,99,190.3,174.3,268.2
					c75.3,77.9,163.5,139.6,262.2,183.3c102.1,45.2,211,69.1,323.6,71c112.6,1.9,222.3-18.3,325.8-60.1
					c100.1-40.3,190.3-99,268.2-174.3c77.9-75.3,139.6-163.5,183.3-262.2c45.2-102.1,69.1-211,71-323.6s-18.3-222.3-60.1-325.8
					c-40.3-100.1-99-190.3-174.3-268.2C1166.6,12,1078.4-49.7,979.7-93.4c-102.1-45.2-211-69.1-323.6-71
					C651.2-164.5,646.4-164.6,641.6-164.6z"/>
			</g>
			<g>
				<path class="st2" d="M642.4,1514.8c-4.4,0-8.7,0-13.1-0.1c-114.1-1.7-224.4-25.7-327.9-71.3c-100-44.1-189.4-106.3-265.8-185.1
					c-76.4-78.8-136-170-177-271.3c-42.5-104.8-63.2-215.8-61.5-329.8c1.7-114.1,25.7-224.4,71.3-327.9
					c44.1-100,106.3-189.4,185.1-265.8c78.8-76.4,170-136,271.3-177C429.7-156,540.6-176.7,654.7-175
					c114.1,1.7,224.4,25.7,327.9,71.3c100,44.1,189.4,106.3,265.8,185.1c76.4,78.8,136,170,177,271.3
					c42.5,104.8,63.2,215.8,61.5,329.8s-25.7,224.4-71.3,327.9c-44.1,100-106.3,189.4-185.1,265.8c-78.8,76.4-170,136-271.3,177
					C858.4,1494.1,751.8,1514.8,642.4,1514.8z M641.6-174.3c-109.3,0-215.7,20.7-316.4,61.5C224-71.8,132.8-12.3,54.2,64.1
					c-78.7,76.3-140.9,165.7-184.9,265.6C-176.3,433-200.3,543.2-202,657.2c-1.7,113.9,18.9,224.8,61.4,329.5
					c41,101.1,100.5,192.3,176.8,271c76.3,78.7,165.7,140.9,265.6,184.9c103.4,45.6,213.6,69.5,327.5,71.3
					c113.9,1.7,224.8-18.9,329.5-61.4c101.1-41,192.3-100.5,271-176.8c78.7-76.3,140.9-165.7,184.9-265.6
					c45.6-103.4,69.5-213.6,71.3-327.5s-18.9-224.8-61.4-329.5c-41-101.1-100.5-192.3-176.8-271c-76.3-78.7-165.7-140.9-265.6-184.9
					c-103.4-45.6-213.6-69.5-327.5-71.3C650.3-174.2,646-174.3,641.6-174.3z"/>
			</g>
			<g>
				<path class="st2" d="M642.4,1524.4c-3.9,0-7.7,0-11.6-0.1c-115.4-1.5-227-25.6-331.7-71.5c-101.2-44.4-191.8-107.2-269.2-186.7
					s-137.9-171.7-179.5-274c-43.2-105.9-64.3-218.1-62.8-333.5c1.5-115.4,25.6-227,71.5-331.7C-96.6,225.6-33.8,135.1,45.7,57.6
					s171.7-137.8,274-179.5c105.9-43.2,218.1-64.3,333.5-62.8c115.4,1.5,227,25.6,331.7,71.5c101.2,44.4,191.8,107.2,269.2,186.7
					s137.9,171.7,179.5,274c43.2,105.9,64.3,218.1,62.8,333.5c-1.5,115.4-25.6,227-71.5,331.7c-44.4,101.2-107.2,191.8-186.7,269.2
					s-171.7,137.9-274,179.5C861.9,1503.3,753.6,1524.4,642.4,1524.4z M641.6-184c-111.2,0-219.3,21.1-321.6,62.8
					C217.8-79.5,125.7-19.2,46.3,58.2c-79.4,77.4-142.2,167.9-186.5,269c-45.9,104.7-70,216.2-71.5,331.4
					c-1.5,115.3,19.6,227.4,62.7,333.2c41.7,102.2,102,194.3,179.4,273.8c77.4,79.4,167.9,142.2,269,186.5
					c104.7,45.9,216.2,70,331.4,71.5c115.3,1.5,227.4-19.6,333.2-62.7c102.2-41.7,194.3-102,273.8-179.4
					c79.4-77.4,142.2-167.9,186.5-269c45.9-104.7,70-216.2,71.5-331.4c1.5-115.3-19.6-227.4-62.7-333.2
					c-41.7-102.2-102-194.3-179.4-273.8c-77.4-79.4-167.9-142.2-269-186.5c-104.7-45.9-216.2-70-331.4-71.5
					C649.4-183.9,645.5-184,641.6-184z"/>
			</g>
			<g>
				<path class="st2" d="M642.3,1534.1c-3.4,0-6.8,0-10.2-0.1c-116.7-1.3-229.6-25.5-335.6-71.8
					c-102.4-44.7-194.1-108.1-272.6-188.3c-78.5-80.3-139.7-173.4-182.1-276.8C-202,890.1-223.5,776.6-222.2,660
					c1.3-116.7,25.5-229.6,71.8-335.6C-105.8,221.9-42.4,130.2,37.9,51.8c80.3-78.5,173.4-139.7,276.8-182.1
					c107.1-43.8,220.5-65.4,337.2-64.1c116.7,1.3,229.6,25.5,335.6,71.8c102.4,44.7,194.1,108.1,272.6,188.3
					s139.7,173.4,182.1,276.8c43.8,107.1,65.4,220.5,64.1,337.2c-1.3,116.7-25.5,229.6-71.8,335.6
					c-44.7,102.4-108.1,194.1-188.3,272.6s-173.4,139.7-276.8,182.1C865.4,1512.6,755.4,1534.1,642.3,1534.1z M641.7-193.7
					c-113,0-222.8,21.5-326.7,64.1C211.7-87.3,118.6-26.1,38.4,52.3s-143.5,170-188.2,272.3C-196,430.6-220.1,543.4-221.5,660
					c-1.3,116.6,20.2,229.9,64,336.9c42.3,103.3,103.5,196.4,181.9,276.6c78.4,80.2,170,143.5,272.3,188.2
					c105.9,46.2,218.8,70.4,335.3,71.7c116.6,1.3,229.9-20.2,336.9-64c103.3-42.3,196.4-103.5,276.6-181.9s143.5-170,188.2-272.3
					c46.2-105.9,70.4-218.8,71.7-335.3c1.3-116.6-20.2-229.9-64-336.9c-42.3-103.3-103.5-196.4-181.9-276.6
					c-78.4-80.2-170-143.5-272.3-188.2c-105.9-46.2-218.8-70.4-335.3-71.7C648.5-193.7,645.1-193.7,641.7-193.7z"/>
			</g>
			<g>
				<path class="st2" d="M642.3,1543.8c-2.9,0-5.8,0-8.7,0c-118-1.1-232.2-25.4-339.5-72c-103.6-45-196.5-108.9-276-190
					c-79.5-81-141.6-175.1-184.6-279.6C-211,894-233,779.4-231.9,661.4c1.1-118,25.4-232.2,72-339.5c45-103.6,108.9-196.5,190-276
					c81-79.5,175.1-141.6,279.6-184.6c108.2-44.5,222.9-66.5,340.8-65.4c118,1.1,232.2,25.4,339.5,72c103.6,45,196.5,108.9,276,190
					c79.5,81,141.6,175.1,184.6,279.6c44.5,108.2,66.5,222.9,65.4,340.8c-1.1,118-25.4,232.2-72,339.5
					c-45,103.6-108.9,196.5-190,276c-81,79.5-175.1,141.6-279.6,184.6C868.9,1521.8,757.2,1543.8,642.3,1543.8z M641.7-203.4
					c-114.8,0-226.4,22-331.8,65.4C205.5-95,111.5-33,30.5,46.4c-81,79.4-144.8,172.2-189.8,275.7
					c-46.6,107.2-70.8,221.3-71.9,339.2c-1.1,117.9,20.8,232.5,65.3,340.5c43,104.4,105,198.4,184.4,279.4
					c79.4,81,172.2,144.8,275.7,189.8c107.2,46.6,221.3,70.8,339.2,71.9c117.9,1.2,232.5-20.8,340.5-65.3
					c104.4-43,198.4-105,279.4-184.4c81-79.4,144.8-172.2,189.8-275.7c46.6-107.2,70.8-221.3,71.9-339.2
					c1.1-117.9-20.8-232.5-65.3-340.5c-43-104.4-105-198.4-184.4-279.4c-79.4-81-172.2-144.8-275.7-189.8
					c-107.2-46.6-221.3-70.8-339.2-71.9C647.5-203.4,644.6-203.4,641.7-203.4z"/>
			</g>
			<g>
				<path class="st2" d="M642.2,1553.5c-2.4,0-4.8,0-7.3,0c-119.3-1-234.8-25.2-343.4-72.2c-104.9-45.3-198.8-109.8-279.3-191.6
					c-80.5-81.8-143.5-176.8-187.1-282.4c-45.2-109.3-67.6-225.2-66.7-344.5c1-119.3,25.2-234.8,72.2-343.4
					C-124.1,214.5-59.6,120.6,22.2,40.1S199-103.4,304.6-147.1c109.3-45.2,225.2-67.6,344.5-66.7c119.3,1,234.8,25.2,343.4,72.2
					C1097.3-96.2,1191.3-31.8,1271.8,50c80.5,81.8,143.5,176.8,187.1,282.4c45.2,109.3,67.6,225.2,66.7,344.5
					c-1,119.3-25.2,234.8-72.2,343.4c-45.3,104.9-109.8,198.8-191.6,279.3c-81.8,80.5-176.8,143.5-282.4,187.1
					C872.4,1531,758.9,1553.5,642.2,1553.5z M641.8-213.1c-116.6,0-230,22.4-336.9,66.7C199.3-102.8,104.4-39.9,22.7,40.5
					C-59.1,121-123.5,214.9-168.8,319.7c-46.9,108.5-71.2,223.9-72.1,343.1c-1,119.2,21.5,235,66.6,344.2
					c43.6,105.5,106.5,200.4,187,282.2c80.4,81.7,174.4,146.1,279.1,191.5c108.5,46.9,223.9,71.2,343.1,72.1
					c119.2,1,235-21.5,344.2-66.6c105.5-43.6,200.4-106.5,282.2-187c81.7-80.4,146.1-174.4,191.5-279.1
					c46.9-108.5,71.2-223.9,72.1-343.1c1-119.2-21.5-235-66.6-344.2c-43.6-105.5-106.5-200.4-187-282.2
					c-80.4-81.7-174.4-146.1-279.1-191.5c-108.5-46.9-223.9-71.2-343.1-72.1C646.6-213.1,644.2-213.1,641.8-213.1z"/>
			</g>
			<g>
				<path class="st2" d="M642.2,1563.1c-1.9,0-3.9,0-5.8,0c-120.6-0.8-237.4-25.1-347.3-72.4c-52.8-22.7-103.7-50.8-151.2-83.3
					c-47.1-32.3-91.3-69.2-131.5-109.9c-40.2-40.7-76.6-85.4-108.2-132.9c-32-48-59.3-99.2-81.4-152.3
					c-45.9-110.4-68.8-227.6-68-348.1c0.8-120.6,25.1-237.4,72.4-347.3c22.7-52.8,50.8-103.7,83.3-151.2
					c32.3-47.1,69.2-91.3,109.9-131.5C55-6,99.7-42.4,147.2-74c48-32,99.2-59.3,152.3-81.4c110.4-45.9,227.6-68.8,348.1-68
					c120.6,0.8,237.4,25.1,347.3,72.4c52.8,22.7,103.7,50.8,151.2,83.3c47.1,32.3,91.3,69.2,131.5,109.9s76.6,85.4,108.2,132.9
					c32,48,59.3,99.2,81.4,152.3c45.9,110.4,68.8,227.6,68,348.1c-0.8,120.6-25.1,237.4-72.4,347.3
					c-22.7,52.8-50.8,103.7-83.3,151.2c-32.3,47.1-69.2,91.3-109.9,131.5c-40.7,40.2-85.4,76.6-132.9,108.2
					c-48,32-99.2,59.3-152.3,81.4C875.9,1540.3,760.7,1563.1,642.2,1563.1z M641.8-222.8c-118.5,0-233.5,22.9-342.1,68
					c-53,22-104.2,49.4-152.1,81.3C100.1-41.9,55.4-5.5,14.8,34.7C-25.8,74.8-62.8,119-95,166.1c-32.5,47.5-60.6,98.4-83.3,151.1
					c-47.2,109.8-71.6,226.5-72.3,347c-0.8,120.5,22.1,237.6,68,347.9c22,53,49.4,104.2,81.3,152.1c31.6,47.5,68,92.1,108.2,132.8
					c40.1,40.6,84.4,77.6,131.4,109.8c47.5,32.5,98.4,60.6,151.1,83.3c109.8,47.2,226.5,71.6,347,72.3
					c120.5,0.8,237.6-22.1,347.9-68c53-22,104.2-49.4,152.1-81.3c47.5-31.6,92.1-68,132.8-108.2c40.6-40.1,77.6-84.4,109.8-131.4
					c32.5-47.5,60.6-98.4,83.3-151.1c47.2-109.8,71.6-226.5,72.3-347s-22.1-237.6-68-347.9c-22-53-49.4-104.2-81.3-152.1
					c-31.6-47.5-68-92.1-108.2-132.8C1237,2,1192.8-35,1145.8-67.2c-47.5-32.5-98.4-60.6-151.1-83.3
					c-109.8-47.2-226.5-71.6-347-72.3C645.7-222.8,643.7-222.8,641.8-222.8z"/>
			</g>
			<g>
				<path class="st2" d="M642.1,1572.8c-1.5,0-2.9,0-4.4,0c-121.9-0.6-240-25-351.1-72.6c-53.4-22.9-104.9-51.1-153-84
					c-47.7-32.5-92.5-69.8-133.1-110.9c-40.7-41.1-77.6-86.2-109.6-134.2c-32.4-48.4-60.2-100.2-82.5-153.8
					c-46.6-111.5-69.9-229.9-69.3-351.8s25-240,72.6-351.1c22.9-53.4,51.1-104.9,84-153C-71.9,113.8-34.6,69,6.5,28.4
					C47.6-12.3,92.7-49.2,140.7-81.3c48.4-32.4,100.2-60.2,153.8-82.5c111.5-46.6,229.9-69.9,351.8-69.3
					c121.9,0.6,240,25,351.1,72.6c53.4,22.9,104.9,51.1,153,84C1198-44,1242.8-6.7,1283.5,34.3c40.7,41.1,77.6,86.2,109.6,134.2
					c32.4,48.4,60.2,100.2,82.5,153.8c46.6,111.5,69.9,229.9,69.3,351.8s-25,240-72.6,351.1c-22.9,53.4-51.1,104.9-84,153
					c-32.5,47.7-69.8,92.5-110.9,133.1c-41.1,40.7-86.2,77.6-134.2,109.6c-48.4,32.4-100.2,60.2-153.8,82.5
					C879.4,1549.5,762.5,1572.8,642.1,1572.8z M641.9-232.5c-120.3,0-237.1,23.3-347.2,69.3c-53.6,22.4-105.3,50.1-153.7,82.5
					C93.1-48.7,48-11.9,6.9,28.8c-41,40.6-78.3,85.4-110.8,133c-32.8,48.1-61,99.5-83.9,152.9c-47.6,111-72,229.1-72.6,350.9
					c-0.6,121.8,22.7,240.1,69.3,351.6c22.4,53.6,50.1,105.3,82.5,153.7c32.1,47.9,68.9,93,109.6,134.1c40.6,41,85.4,78.3,133,110.8
					c48.1,32.8,99.5,61,152.9,83.9c111,47.6,229.1,72,350.9,72.6c1.4,0,2.9,0,4.4,0c120.3,0,237.1-23.3,347.2-69.3
					c53.6-22.4,105.3-50.1,153.7-82.5c47.9-32.1,93-68.9,134.1-109.6c41-40.6,78.3-85.4,110.8-133c32.8-48.1,61-99.5,83.9-152.9
					c47.6-111,72-229.1,72.6-350.9s-22.7-240.1-69.3-351.6c-22.4-53.6-50.1-105.3-82.5-153.7c-32.1-47.9-68.9-93-109.6-134.1
					c-40.6-41-85.4-78.3-133-110.8c-48.1-32.8-99.5-61-152.9-83.9c-111-47.6-229.1-72-350.9-72.6
					C644.8-232.5,643.3-232.5,641.9-232.5z"/>
			</g>
			<g>
				<path class="st2" d="M642.1,1582.5c-1,0-1.9,0-2.9,0c-123.2-0.4-242.7-24.9-355-72.8c-54-23-106.1-51.5-154.8-84.6
					c-48.2-32.8-93.6-70.4-134.7-111.9c-41.2-41.4-78.5-87-111-135.4c-32.8-48.9-61-101.1-83.7-155.3
					c-47.2-112.7-71-232.3-70.6-355.5c0.4-123.2,24.9-242.7,72.8-355c23-54,51.5-106.1,84.6-154.8C-80.4,109-42.8,63.7-1.3,22.5
					c41.4-41.2,87-78.5,135.4-111c48.9-32.8,101.1-61,155.3-83.7c111.8-46.9,230.4-70.6,352.6-70.6c1,0,1.9,0,2.9,0
					c123.2,0.4,242.7,24.9,355,72.8c54,23,106.1,51.5,154.8,84.6c48.2,32.8,93.6,70.4,134.7,111.9c41.2,41.4,78.5,87,111,135.4
					c32.8,48.9,61,101.1,83.7,155.3c47.2,112.7,71,232.3,70.6,355.5c-0.4,123.2-24.9,242.7-72.8,355c-23,54-51.5,106.1-84.6,154.8
					c-32.8,48.2-70.4,93.6-111.9,134.7c-41.4,41.2-87,78.5-135.4,111c-48.9,32.8-101.1,61-155.3,83.7
					C882.9,1558.7,764.3,1582.5,642.1,1582.5z M641.9-242.2c-122.1,0-240.6,23.7-352.3,70.6C235.5-149,183.2-120.8,134.4-88
					C86-55.6,40.5-18.2-0.9,22.9c-41.4,41.1-79,86.4-111.8,134.6c-33.1,48.7-61.5,100.7-84.6,154.7
					c-47.9,112.3-72.4,231.7-72.8,354.8c-0.4,123.1,23.4,242.7,70.6,355.2c22.7,54.1,50.8,106.3,83.6,155.2
					c32.5,48.4,69.8,93.9,111,135.3c41.1,41.4,86.4,79,134.6,111.8c48.7,33.1,100.7,61.5,154.7,84.6
					c112.3,47.9,231.7,72.4,354.8,72.8c123.1,0.4,242.7-23.4,355.2-70.6c54.1-22.7,106.3-50.8,155.2-83.6
					c48.4-32.5,93.9-69.8,135.3-111c41.4-41.1,79-86.4,111.8-134.6c33.1-48.7,61.5-100.7,84.6-154.7
					c47.9-112.3,72.4-231.7,72.8-354.8s-23.4-242.7-70.6-355.2c-22.7-54.1-50.8-106.3-83.6-155.2c-32.5-48.4-69.8-93.9-111-135.3
					c-41.1-41.4-86.4-79-134.6-111.8c-48.7-33.1-100.7-61.5-154.7-84.6c-112.3-47.9-231.7-72.4-354.8-72.8
					C643.8-242.2,642.9-242.2,641.9-242.2z"/>
			</g>
			<g>
				<path class="st2" d="M642,1592.2c-0.5,0-1,0-1.5,0c-124.5-0.2-245.3-24.8-358.9-73c-54.6-23.2-107.3-51.9-156.5-85.3
					c-48.8-33.1-94.7-71-136.3-112.8c-41.7-41.8-79.5-87.8-112.4-136.7c-33.2-49.4-61.8-102.1-84.8-156.8
					c-47.9-113.8-72.1-234.6-71.9-359.1c0.2-124.5,24.8-245.3,73-358.9c23.2-54.6,51.9-107.3,85.3-156.5C-89,104.2-51,58.3-9.2,16.7
					C32.6-25,78.6-62.8,127.5-95.8c49.4-33.2,102.1-61.8,156.8-84.8C397.6-228.3,518-252.5,642-252.5c0.5,0,1,0,1.5,0
					c124.5,0.2,245.3,24.8,358.9,73c54.6,23.2,107.3,51.9,156.5,85.3c48.8,33.1,94.7,71,136.3,112.8
					c41.7,41.8,79.5,87.8,112.4,136.7c33.2,49.4,61.8,102.1,84.8,156.8c47.9,113.8,72.1,234.6,71.9,359.1
					c-0.2,124.5-24.8,245.3-73,358.9c-23.2,54.6-51.9,107.3-85.3,156.5c-33.1,48.8-71,94.7-112.8,136.3
					c-41.8,41.7-87.8,79.5-136.7,112.4c-49.4,33.2-102.1,61.8-156.8,84.8C886.4,1568,766,1592.2,642,1592.2z M642-252
					c-123.9,0-244.2,24.2-357.5,71.9c-54.7,23-107.4,51.5-156.7,84.8C78.9-62.4,33-24.6-8.8,17c-41.8,41.6-79.7,87.5-112.8,136.3
					c-33.4,49.2-62,101.9-85.2,156.5c-48.2,113.6-72.8,234.3-73,358.7c-0.2,124.4,24,245.2,71.9,358.9
					c23,54.7,51.5,107.4,84.8,156.7c32.9,48.9,70.7,94.8,112.4,136.6c41.6,41.8,87.5,79.7,136.3,112.8
					c49.2,33.4,101.9,62,156.5,85.2c113.6,48.2,234.3,72.8,358.7,73c124.5,0.2,245.2-24,358.9-71.9c54.7-23,107.4-51.5,156.7-84.8
					c48.9-32.9,94.8-70.7,136.6-112.4c41.8-41.6,79.7-87.5,112.8-136.3c33.4-49.2,62-101.9,85.2-156.5
					c48.2-113.6,72.8-234.3,73-358.7c0.2-124.4-24-245.2-71.9-358.9c-23-54.7-51.5-107.4-84.8-156.7
					c-32.9-48.9-70.7-94.8-112.4-136.6s-87.5-79.7-136.3-112.8c-49.2-33.4-101.9-62-156.5-85.2c-113.6-48.2-234.3-72.8-358.7-73
					C642.9-252,642.4-252,642-252z"/>
			</g>
			<g>
				<path class="st2" d="M642,1601.9c-125.8,0-247.9-24.6-362.8-73.2c-55.2-23.4-108.5-52.3-158.3-85.9
					c-49.4-33.3-95.8-71.6-137.9-113.8c-42.2-42.2-80.5-88.6-113.8-137.9c-33.7-49.8-62.6-103.1-85.9-158.3
					c-48.6-114.9-73.2-237-73.2-362.8s24.6-247.9,73.2-362.8c23.4-55.2,52.3-108.5,85.9-158.3C-97.5,99.4-59.2,53-17,10.8
					C25.1-31.4,71.5-69.7,120.9-103c49.8-33.7,103.1-62.6,158.3-85.9c114.9-48.6,237-73.2,362.8-73.2c125.8,0,247.9,24.6,362.8,73.2
					c55.2,23.4,108.5,52.3,158.3,85.9c49.4,33.3,95.8,71.6,137.9,113.8s80.5,88.6,113.8,137.9c33.7,49.8,62.6,103.1,85.9,158.3
					c48.6,114.9,73.2,237,73.2,362.8s-24.6,247.9-73.2,362.8c-23.4,55.2-52.3,108.5-85.9,158.3c-33.3,49.4-71.6,95.8-113.8,137.9
					s-88.6,80.5-137.9,113.8c-49.8,33.7-103.1,62.6-158.3,85.9C889.9,1577.2,767.8,1601.9,642,1601.9z M642-261.7
					c-125.8,0-247.7,24.6-362.6,73.2c-55.2,23.3-108.4,52.2-158.2,85.9C71.8-69.3,25.5-31-16.7,11.2C-58.8,53.3-97.1,99.7-130.4,149
					c-33.6,49.8-62.5,103-85.9,158.2c-48.6,114.8-73.2,236.8-73.2,362.6s24.6,247.8,73.2,362.6c23.3,55.2,52.2,108.4,85.9,158.2
					c33.3,49.3,71.6,95.7,113.7,137.9s88.5,80.4,137.9,113.7c49.8,33.6,103,62.5,158.2,85.9c114.8,48.6,236.8,73.2,362.6,73.2
					c125.8,0,247.8-24.6,362.6-73.2c55.2-23.3,108.4-52.2,158.2-85.9c49.3-33.3,95.7-71.6,137.9-113.7s80.4-88.5,113.7-137.9
					c33.6-49.8,62.5-103,85.9-158.2c48.6-114.8,73.2-236.8,73.2-362.6s-24.6-247.7-73.2-362.6c-23.3-55.2-52.2-108.4-85.9-158.2
					c-33.3-49.3-71.6-95.7-113.7-137.9c-42.2-42.2-88.5-80.4-137.9-113.7c-49.8-33.6-103-62.5-158.2-85.9
					C889.8-237.1,767.8-261.7,642-261.7z"/>
			</g>
		</g>
	</g>
</g>
</svg>
