<?xml version="1.0" encoding="utf-8"?>
<!-- Generator: Adobe Illustrator 19.0.0, SVG Export Plug-In . SVG Version: 6.00 Build 0)  -->
<svg version="1.1" id="Calque_1" xmlns="http://www.w3.org/2000/svg" xmlns:xlink="http://www.w3.org/1999/xlink" x="0px" y="0px"
	 viewBox="0 0 1133.9 1133.9" style="enable-background:new 0 0 1133.9 1133.9;" xml:space="preserve">
<style type="text/css">
	.st0{fill:#F29B22;}
</style>
<path id="XMLID_1_" class="st0" d="M451,981.1c-4.6-4.1-8.4-7.1-11.8-10.5C316.6,848.8,194.2,726.8,71.4,605.2
	c-9.8-9.7-11.1-15.7-0.5-25.7c22.4-21,44.4-42.6,64.9-65.4c12.3-13.7,19.4-11.1,31.2,0.7c80.8,81.3,162.3,162,243.6,242.9
	c30.9,30.8,31,30.8,58.6-2.3c163-196.1,326.2-392.1,488.6-588.7c12.7-15.3,20.4-19.4,36.1-4.3c20.3,19.6,42.5,37.2,65,54.3
	c13.3,10.1,15.4,16.5,3.5,30.7c-130.1,155.4-259.4,311.5-389,467.4c-69.5,83.7-139.1,167.4-208.7,251.1
	C460.8,970.7,456.2,975.3,451,981.1z"/>
</svg>
