<svg id="Calque_1" data-name="Calque 1" xmlns="http://www.w3.org/2000/svg" xmlns:xlink="http://www.w3.org/1999/xlink" viewBox="0 0 127.65 127.65"><defs><style>.cls-1,.cls-10,.cls-11,.cls-12,.cls-13,.cls-14,.cls-15,.cls-16,.cls-17,.cls-18,.cls-19,.cls-20,.cls-21,.cls-22,.cls-23,.cls-24,.cls-25,.cls-26,.cls-27,.cls-28,.cls-29,.cls-30,.cls-31,.cls-32,.cls-33,.cls-34,.cls-35,.cls-36,.cls-37,.cls-38,.cls-39,.cls-40,.cls-41,.cls-42,.cls-43,.cls-44,.cls-45,.cls-46,.cls-47,.cls-48,.cls-49,.cls-50,.cls-51,.cls-52,.cls-53,.cls-54,.cls-55,.cls-56,.cls-57,.cls-58,.cls-59,.cls-6,.cls-60,.cls-61,.cls-62,.cls-63,.cls-64,.cls-65,.cls-66,.cls-67,.cls-68,.cls-69,.cls-7,.cls-70,.cls-71,.cls-72,.cls-8,.cls-9{fill:none;}.cls-2{fill:url(#Dégradé_sans_nom_27);}.cls-3{fill:url(#Dégradé_sans_nom_27-2);}.cls-4{fill:url(#Dégradé_sans_nom_27-3);}.cls-5{clip-path:url(#clip-path);}.cls-10,.cls-11,.cls-12,.cls-13,.cls-14,.cls-15,.cls-16,.cls-17,.cls-18,.cls-19,.cls-20,.cls-21,.cls-22,.cls-23,.cls-24,.cls-25,.cls-26,.cls-27,.cls-28,.cls-29,.cls-30,.cls-31,.cls-32,.cls-33,.cls-34,.cls-35,.cls-36,.cls-37,.cls-38,.cls-39,.cls-40,.cls-41,.cls-42,.cls-43,.cls-44,.cls-45,.cls-46,.cls-47,.cls-48,.cls-49,.cls-50,.cls-51,.cls-52,.cls-53,.cls-54,.cls-55,.cls-56,.cls-57,.cls-58,.cls-59,.cls-6,.cls-60,.cls-61,.cls-62,.cls-63,.cls-64,.cls-65,.cls-66,.cls-67,.cls-68,.cls-69,.cls-7,.cls-70,.cls-71,.cls-72,.cls-8,.cls-9{stroke:#3b3a3a;stroke-miterlimit:10;}.cls-6{stroke-width:2.91px;}.cls-7{stroke-width:2.87px;}.cls-8{stroke-width:2.83px;}.cls-9{stroke-width:2.8px;}.cls-10{stroke-width:2.76px;}.cls-11{stroke-width:2.72px;}.cls-12{stroke-width:2.69px;}.cls-13{stroke-width:2.65px;}.cls-14{stroke-width:2.61px;}.cls-15{stroke-width:2.58px;}.cls-16{stroke-width:2.54px;}.cls-17{stroke-width:2.51px;}.cls-18{stroke-width:2.47px;}.cls-19{stroke-width:2.43px;}.cls-20{stroke-width:2.4px;}.cls-21{stroke-width:2.36px;}.cls-22{stroke-width:2.32px;}.cls-23{stroke-width:2.29px;}.cls-24{stroke-width:2.25px;}.cls-25{stroke-width:2.21px;}.cls-26{stroke-width:2.18px;}.cls-27{stroke-width:2.14px;}.cls-28{stroke-width:2.1px;}.cls-29{stroke-width:2.07px;}.cls-30{stroke-width:2.03px;}.cls-31{stroke-width:1.99px;}.cls-32{stroke-width:1.96px;}.cls-33{stroke-width:1.92px;}.cls-34{stroke-width:1.89px;}.cls-35{stroke-width:1.85px;}.cls-36{stroke-width:1.81px;}.cls-37{stroke-width:1.78px;}.cls-38{stroke-width:1.74px;}.cls-39{stroke-width:1.7px;}.cls-40{stroke-width:1.67px;}.cls-41{stroke-width:1.63px;}.cls-42{stroke-width:1.59px;}.cls-43{stroke-width:1.56px;}.cls-44{stroke-width:1.52px;}.cls-45{stroke-width:1.48px;}.cls-46{stroke-width:1.45px;}.cls-47{stroke-width:1.41px;}.cls-48{stroke-width:1.38px;}.cls-49{stroke-width:1.34px;}.cls-50{stroke-width:1.3px;}.cls-51{stroke-width:1.27px;}.cls-52{stroke-width:1.23px;}.cls-53{stroke-width:1.19px;}.cls-54{stroke-width:1.16px;}.cls-55{stroke-width:1.12px;}.cls-56{stroke-width:1.08px;}.cls-57{stroke-width:1.05px;}.cls-58{stroke-width:1.01px;}.cls-59{stroke-width:0.97px;}.cls-60{stroke-width:0.94px;}.cls-61{stroke-width:0.9px;}.cls-62{stroke-width:0.86px;}.cls-63{stroke-width:0.83px;}.cls-64{stroke-width:0.79px;}.cls-65{stroke-width:0.76px;}.cls-66{stroke-width:0.72px;}.cls-67{stroke-width:0.68px;}.cls-68{stroke-width:0.65px;}.cls-69{stroke-width:0.61px;}.cls-70{stroke-width:0.57px;}.cls-71{stroke-width:0.54px;}.cls-72{stroke-width:0.5px;}</style><linearGradient id="Dégradé_sans_nom_27" x1="13.09" y1="63.82" x2="114.56" y2="63.82" gradientUnits="userSpaceOnUse"><stop offset="0" stop-color="#ed6d48"/><stop offset="0.14" stop-color="#ee7541"/><stop offset="0.68" stop-color="#f29128"/><stop offset="1" stop-color="#f39b1f"/></linearGradient><linearGradient id="Dégradé_sans_nom_27-2" x1="6.12" y1="63.82" x2="121.53" y2="63.82" xlink:href="#Dégradé_sans_nom_27"/><linearGradient id="Dégradé_sans_nom_27-3" x1="0" y1="63.82" x2="127.65" y2="63.82" xlink:href="#Dégradé_sans_nom_27"/><clipPath id="clip-path"><rect class="cls-1" x="-932.58" y="-976.39" width="1281.63" height="530.41"/></clipPath></defs><title>circle</title><path class="cls-2" d="M63.83,114.56a50.74,50.74,0,1,1,50.74-50.74A50.8,50.8,0,0,1,63.83,114.56Zm0-99.48a48.74,48.74,0,1,0,48.74,48.74A48.79,48.79,0,0,0,63.83,15.09Z"/><path class="cls-3" d="M63.83,121.53a57.71,57.71,0,1,1,57.71-57.71A57.77,57.77,0,0,1,63.83,121.53Zm0-114.42a56.71,56.71,0,1,0,56.71,56.71A56.77,56.77,0,0,0,63.83,7.12Z"/><path class="cls-4" d="M63.83,127.65a63.82,63.82,0,1,1,63.82-63.82A63.9,63.9,0,0,1,63.83,127.65ZM63.83.5a63.32,63.32,0,1,0,63.32,63.32A63.4,63.4,0,0,0,63.83.5Z"/><g class="cls-5"><circle class="cls-6" cx="-289.76" cy="-306.55" r="305.68" transform="translate(90.43 -489.28) rotate(-72.28)"/><circle class="cls-7" cx="-289.76" cy="-306.55" r="314.53" transform="translate(87.9 -494.45) rotate(-73.06)"/><circle class="cls-8" cx="-289.76" cy="-306.55" r="323.43" transform="translate(85.44 -499.31) rotate(-73.8)"/><circle class="cls-9" cx="-289.76" cy="-306.55" r="332.38" transform="translate(83.06 -503.88) rotate(-74.5)"/><circle class="cls-10" cx="-289.76" cy="-306.55" r="341.38" transform="translate(80.75 -508.19) rotate(-75.17)"/><circle class="cls-11" cx="-289.76" cy="-306.55" r="350.42" transform="translate(78.51 -512.24) rotate(-75.8)"/><circle class="cls-12" cx="-289.76" cy="-306.55" r="359.51" transform="translate(76.35 -516.07) rotate(-76.39)"/><circle class="cls-13" cx="-289.76" cy="-306.55" r="368.63" transform="translate(74.26 -519.69) rotate(-76.96)"/><circle class="cls-14" cx="-289.76" cy="-306.55" r="377.78" transform="translate(72.23 -523.11) rotate(-77.5)"/><circle class="cls-15" cx="-289.76" cy="-306.55" r="386.97" transform="translate(70.27 -526.35) rotate(-78.02)"/><circle class="cls-16" cx="-289.76" cy="-306.55" r="396.18" transform="translate(68.37 -529.43) rotate(-78.51)"/><circle class="cls-17" cx="-289.76" cy="-306.55" r="405.43" transform="translate(66.54 -532.35) rotate(-78.98)"/><circle class="cls-18" cx="-289.76" cy="-306.55" r="414.7" transform="translate(64.76 -535.13) rotate(-79.42)"/><circle class="cls-19" cx="-289.76" cy="-306.55" r="423.99" transform="translate(63.05 -537.77) rotate(-79.85)"/><circle class="cls-20" cx="-289.76" cy="-306.55" r="433.31" transform="translate(61.39 -540.29) rotate(-80.26)"/><circle class="cls-21" cx="-289.76" cy="-306.55" r="442.65" transform="translate(59.78 -542.68) rotate(-80.65)"/><circle class="cls-22" cx="-289.76" cy="-306.55" r="452.01" transform="translate(58.22 -544.97) rotate(-81.03)"/><circle class="cls-23" cx="-289.76" cy="-306.55" r="461.38" transform="translate(56.71 -547.16) rotate(-81.39)"/><circle class="cls-24" cx="-289.76" cy="-306.55" r="470.78" transform="translate(55.25 -549.25) rotate(-81.74)"/><circle class="cls-25" cx="-289.76" cy="-306.55" r="480.19" transform="matrix(0.14, -0.99, 0.99, 0.14, 53.83, -551.25)"/><circle class="cls-26" cx="-289.76" cy="-306.55" r="489.61" transform="translate(52.46 -553.17) rotate(-82.39)"/><circle class="cls-27" cx="-289.76" cy="-306.55" r="499.05" transform="translate(51.13 -555) rotate(-82.7)"/><circle class="cls-28" cx="-289.76" cy="-306.55" r="508.51" transform="translate(49.84 -556.76) rotate(-82.99)"/><circle class="cls-29" cx="-289.76" cy="-306.55" r="517.98" transform="translate(48.59 -558.45) rotate(-83.28)"/><circle class="cls-30" cx="-289.76" cy="-306.55" r="527.46" transform="translate(47.37 -560.08) rotate(-83.56)"/><circle class="cls-31" cx="-289.76" cy="-306.55" r="536.95" transform="matrix(0.11, -0.99, 0.99, 0.11, 46.19, -561.64)"/><circle class="cls-32" cx="-289.76" cy="-306.55" r="546.45" transform="translate(45.05 -563.14) rotate(-84.08)"/><circle class="cls-33" cx="-289.76" cy="-306.55" r="555.97" transform="translate(43.94 -564.58) rotate(-84.33)"/><circle class="cls-34" cx="-289.76" cy="-306.55" r="565.49" transform="translate(42.86 -565.98) rotate(-84.56)"/><circle class="cls-35" cx="-289.76" cy="-306.55" r="575.03" transform="translate(41.81 -567.32) rotate(-84.8)"/><circle class="cls-36" cx="-289.76" cy="-306.55" r="584.57" transform="translate(40.78 -568.61) rotate(-85.02)"/><circle class="cls-37" cx="-289.76" cy="-306.55" r="594.12" transform="translate(39.79 -569.86) rotate(-85.24)"/><circle class="cls-38" cx="-289.76" cy="-306.55" r="603.68" transform="translate(38.82 -571.06) rotate(-85.45)"/><circle class="cls-39" cx="-289.76" cy="-306.55" r="613.25" transform="translate(37.88 -572.23) rotate(-85.65)"/><circle class="cls-40" cx="-289.76" cy="-306.55" r="622.82" transform="translate(36.97 -573.35) rotate(-85.85)"/><circle class="cls-41" cx="-289.76" cy="-306.55" r="632.4" transform="translate(36.08 -574.44) rotate(-86.04)"/><circle class="cls-42" cx="-289.76" cy="-306.55" r="641.99" transform="translate(35.21 -575.49) rotate(-86.22)"/><circle class="cls-43" cx="-289.76" cy="-306.55" r="651.59" transform="translate(34.36 -576.51) rotate(-86.4)"/><circle class="cls-44" cx="-289.76" cy="-306.55" r="661.19" transform="translate(33.54 -577.5) rotate(-86.58)"/><circle class="cls-45" cx="-289.76" cy="-306.55" r="670.8" transform="translate(32.73 -578.46) rotate(-86.75)"/><circle class="cls-46" cx="-289.76" cy="-306.55" r="680.41" transform="matrix(0.05, -1, 1, 0.05, 31.95, -579.38)"/><circle class="cls-47" cx="-289.76" cy="-306.55" r="690.03" transform="translate(31.19 -580.28) rotate(-87.07)"/><circle class="cls-48" cx="-289.76" cy="-306.55" r="699.65" transform="translate(30.44 -581.15) rotate(-87.23)"/><circle class="cls-49" cx="-289.76" cy="-306.55" r="709.28" transform="translate(29.71 -582) rotate(-87.38)"/><circle class="cls-50" cx="-289.76" cy="-306.55" r="718.92" transform="translate(29 -582.82) rotate(-87.53)"/><circle class="cls-51" cx="-289.76" cy="-306.55" r="728.55" transform="translate(28.31 -583.62) rotate(-87.67)"/><circle class="cls-52" cx="-289.76" cy="-306.55" r="738.2" transform="translate(27.63 -584.4) rotate(-87.81)"/><circle class="cls-53" cx="-289.76" cy="-306.55" r="747.84" transform="translate(26.97 -585.15) rotate(-87.95)"/><circle class="cls-54" cx="-289.76" cy="-306.55" r="757.5" transform="translate(26.32 -585.89) rotate(-88.08)"/><circle class="cls-55" cx="-289.76" cy="-306.55" r="767.15" transform="translate(25.69 -586.6) rotate(-88.21)"/><circle class="cls-56" cx="-289.76" cy="-306.55" r="776.81" transform="translate(25.07 -587.29) rotate(-88.34)"/><circle class="cls-57" cx="-289.76" cy="-306.55" r="786.47" transform="translate(24.47 -587.97) rotate(-88.46)"/><circle class="cls-58" cx="-289.76" cy="-306.55" r="796.14" transform="matrix(0.02, -1, 1, 0.02, 23.88, -588.63)"/><circle class="cls-59" cx="-289.76" cy="-306.55" r="805.81" transform="translate(23.3 -589.27) rotate(-88.7)"/><circle class="cls-60" cx="-289.76" cy="-306.55" r="815.48" transform="translate(22.73 -589.89) rotate(-88.81)"/><circle class="cls-61" cx="-289.76" cy="-306.55" r="825.16" transform="translate(22.18 -590.5) rotate(-88.92)"/><circle class="cls-62" cx="-289.76" cy="-306.55" r="834.84" transform="matrix(0.02, -1, 1, 0.02, 21.64, -591.1)"/><circle class="cls-63" cx="-289.76" cy="-306.55" r="844.52" transform="translate(21.11 -591.68) rotate(-89.14)"/><circle class="cls-64" cx="-289.76" cy="-306.55" r="854.21" transform="translate(20.59 -592.24) rotate(-89.24)"/><circle class="cls-65" cx="-289.76" cy="-306.55" r="863.89" transform="translate(20.08 -592.8) rotate(-89.35)"/><circle class="cls-66" cx="-289.76" cy="-306.55" r="873.58" transform="matrix(0.01, -1, 1, 0.01, 19.58, -593.33)"/><circle class="cls-67" cx="-289.76" cy="-306.55" r="883.28" transform="translate(19.09 -593.86) rotate(-89.54)"/><circle class="cls-68" cx="-289.76" cy="-306.55" r="892.97" transform="translate(18.61 -594.37) rotate(-89.64)"/><circle class="cls-69" cx="-289.76" cy="-306.55" r="902.67" transform="translate(18.14 -594.88) rotate(-89.73)"/><circle class="cls-70" cx="-289.76" cy="-306.55" r="912.37" transform="matrix(0, -1, 1, 0, 17.68, -595.37)"/><circle class="cls-71" cx="-289.76" cy="-306.55" r="922.07" transform="translate(17.23 -595.85) rotate(-89.91)"/><circle class="cls-72" cx="-289.76" cy="-306.55" r="931.78"/></g></svg>