<svg id="Calque_1" data-name="Calque 1" xmlns="http://www.w3.org/2000/svg" xmlns:xlink="http://www.w3.org/1999/xlink" viewBox="0 0 196.18 52.43"><defs><style>.cls-1,.cls-10,.cls-11,.cls-12,.cls-13,.cls-14,.cls-15,.cls-16,.cls-17,.cls-18,.cls-19,.cls-20,.cls-21,.cls-22,.cls-23,.cls-24,.cls-25,.cls-26,.cls-27,.cls-28,.cls-29,.cls-30,.cls-31,.cls-32,.cls-33,.cls-34,.cls-4,.cls-5,.cls-6,.cls-7,.cls-8,.cls-9{fill:none;}.cls-2{fill:#f9f9f9;}.cls-3{clip-path:url(#clip-path);}.cls-10,.cls-11,.cls-12,.cls-13,.cls-14,.cls-15,.cls-16,.cls-17,.cls-18,.cls-19,.cls-20,.cls-21,.cls-22,.cls-23,.cls-24,.cls-25,.cls-26,.cls-27,.cls-28,.cls-29,.cls-30,.cls-31,.cls-32,.cls-33,.cls-34,.cls-4,.cls-5,.cls-6,.cls-7,.cls-8,.cls-9{stroke:#3b3a3a;stroke-miterlimit:10;}.cls-4{stroke-width:1.59px;}.cls-5{stroke-width:1.56px;}.cls-6{stroke-width:1.52px;}.cls-7{stroke-width:1.48px;}.cls-8{stroke-width:1.45px;}.cls-9{stroke-width:1.41px;}.cls-10{stroke-width:1.38px;}.cls-11{stroke-width:1.34px;}.cls-12{stroke-width:1.3px;}.cls-13{stroke-width:1.27px;}.cls-14{stroke-width:1.23px;}.cls-15{stroke-width:1.19px;}.cls-16{stroke-width:1.16px;}.cls-17{stroke-width:1.12px;}.cls-18{stroke-width:1.08px;}.cls-19{stroke-width:1.05px;}.cls-20{stroke-width:1.01px;}.cls-21{stroke-width:0.97px;}.cls-22{stroke-width:0.94px;}.cls-23{stroke-width:0.9px;}.cls-24{stroke-width:0.86px;}.cls-25{stroke-width:0.83px;}.cls-26{stroke-width:0.79px;}.cls-27{stroke-width:0.76px;}.cls-28{stroke-width:0.72px;}.cls-29{stroke-width:0.68px;}.cls-30{stroke-width:0.65px;}.cls-31{stroke-width:0.61px;}.cls-32{stroke-width:0.57px;}.cls-33{stroke-width:0.54px;}.cls-34{stroke-width:0.5px;}</style><clipPath id="clip-path"><rect class="cls-1" x="-1281.63" y="-923.96" width="1281.63" height="530.41"/></clipPath></defs><title>cloud-grey</title><path class="cls-2" d="M21.06,31.14A32.62,32.62,0,0,1,62.33,17.77a43.67,43.67,0,0,1,71.61,7.71,27.84,27.84,0,0,1,31,13.07,18.71,18.71,0,0,1,31.26,13.89H0A21.3,21.3,0,0,1,21.06,31.14Z"/><g class="cls-3"><circle class="cls-4" cx="-638.81" cy="-254.12" r="641.99" transform="translate(-343.17 -874.81) rotate(-86.22)"/><circle class="cls-5" cx="-638.81" cy="-254.12" r="651.59" transform="translate(-345.12 -875.73) rotate(-86.4)"/><circle class="cls-6" cx="-638.81" cy="-254.12" r="661.19" transform="translate(-347.01 -876.62) rotate(-86.58)"/><circle class="cls-7" cx="-638.81" cy="-254.12" r="670.8" transform="translate(-348.86 -877.49) rotate(-86.75)"/><circle class="cls-8" cx="-638.81" cy="-254.12" r="680.41" transform="matrix(0.05, -1, 1, 0.05, -350.65, -878.32)"/><circle class="cls-9" cx="-638.81" cy="-254.12" r="690.03" transform="translate(-352.4 -879.12) rotate(-87.07)"/><circle class="cls-10" cx="-638.81" cy="-254.12" r="699.65" transform="translate(-354.1 -879.9) rotate(-87.23)"/><circle class="cls-11" cx="-638.81" cy="-254.12" r="709.28" transform="translate(-355.76 -880.65) rotate(-87.38)"/><circle class="cls-12" cx="-638.81" cy="-254.12" r="718.92" transform="translate(-357.37 -881.38) rotate(-87.53)"/><circle class="cls-13" cx="-638.81" cy="-254.12" r="728.55" transform="translate(-358.95 -882.08) rotate(-87.67)"/><circle class="cls-14" cx="-638.81" cy="-254.12" r="738.2" transform="translate(-360.48 -882.76) rotate(-87.81)"/><circle class="cls-15" cx="-638.81" cy="-254.12" r="747.84" transform="translate(-361.98 -883.42) rotate(-87.95)"/><circle class="cls-16" cx="-638.81" cy="-254.12" r="757.5" transform="translate(-363.44 -884.06) rotate(-88.08)"/><circle class="cls-17" cx="-638.81" cy="-254.12" r="767.15" transform="translate(-364.86 -884.68) rotate(-88.21)"/><circle class="cls-18" cx="-638.81" cy="-254.12" r="776.81" transform="translate(-366.25 -885.28) rotate(-88.34)"/><circle class="cls-19" cx="-638.81" cy="-254.12" r="786.47" transform="translate(-367.61 -885.87) rotate(-88.46)"/><circle class="cls-20" cx="-638.81" cy="-254.12" r="796.14" transform="matrix(0.02, -1, 1, 0.02, -368.94, -886.44)"/><circle class="cls-21" cx="-638.81" cy="-254.12" r="805.81" transform="translate(-370.23 -886.99) rotate(-88.7)"/><circle class="cls-22" cx="-638.81" cy="-254.12" r="815.48" transform="translate(-371.5 -887.52) rotate(-88.81)"/><circle class="cls-23" cx="-638.81" cy="-254.12" r="825.16" transform="translate(-372.73 -888.04) rotate(-88.92)"/><circle class="cls-24" cx="-638.81" cy="-254.12" r="834.84" transform="matrix(0.02, -1, 1, 0.02, -373.94, -888.55)"/><circle class="cls-25" cx="-638.81" cy="-254.12" r="844.52" transform="translate(-375.13 -889.04) rotate(-89.14)"/><circle class="cls-26" cx="-638.81" cy="-254.12" r="854.21" transform="translate(-376.28 -889.52) rotate(-89.24)"/><circle class="cls-27" cx="-638.81" cy="-254.12" r="863.89" transform="translate(-377.41 -889.99) rotate(-89.35)"/><circle class="cls-28" cx="-638.81" cy="-254.12" r="873.58" transform="matrix(0.01, -1, 1, 0.01, -378.52, -890.44)"/><circle class="cls-29" cx="-638.81" cy="-254.12" r="883.28" transform="translate(-379.6 -890.88) rotate(-89.54)"/><circle class="cls-30" cx="-638.81" cy="-254.12" r="892.97" transform="translate(-380.66 -891.31) rotate(-89.64)"/><circle class="cls-31" cx="-638.81" cy="-254.12" r="902.67" transform="translate(-381.7 -891.73) rotate(-89.73)"/><circle class="cls-32" cx="-638.81" cy="-254.12" r="912.37" transform="matrix(0, -1, 1, 0, -382.72, -892.14)"/><circle class="cls-33" cx="-638.81" cy="-254.12" r="922.07" transform="translate(-383.72 -892.54) rotate(-89.91)"/><circle class="cls-34" cx="-638.81" cy="-254.12" r="931.78"/></g></svg>