<svg id="Calque_1" data-name="Calque 1" xmlns="http://www.w3.org/2000/svg" viewBox="0 0 72 60"><defs><style>.cls-1{fill:#f39b1f;}</style></defs><title>formation</title><path class="cls-1" d="M32,17.11a5.71,5.71,0,1,1,5.71-5.71A5.72,5.72,0,0,1,32,17.11ZM32,6.64a4.75,4.75,0,1,0,4.75,4.75A4.76,4.76,0,0,0,32,6.64Z"/><path class="cls-1" d="M61.06,29.75H46.16A4.18,4.18,0,0,1,42,25.57V24.42h1v1.15a3.22,3.22,0,0,0,3.21,3.21H61.06a3.22,3.22,0,0,0,3.21-3.21V5.68a3.22,3.22,0,0,0-3.21-3.21H46.16a3.22,3.22,0,0,0-3.21,3.21V18.53H42V5.68a4.18,4.18,0,0,1,4.17-4.17H61.06a4.18,4.18,0,0,1,4.17,4.17V25.57A4.18,4.18,0,0,1,61.06,29.75Z"/><path class="cls-1" d="M20,17.35,14.4,15H8.74a2.34,2.34,0,0,1-2.33-2.34v-5A2.34,2.34,0,0,1,8.74,5.3h12a2.34,2.34,0,0,1,2.33,2.34v5A2.34,2.34,0,0,1,20.73,15H20ZM8.74,6.27A1.37,1.37,0,0,0,7.37,7.64v5a1.37,1.37,0,0,0,1.37,1.37l5.94,0,4.4,1.82V14.05h1.65a1.37,1.37,0,0,0,1.37-1.37v-5a1.37,1.37,0,0,0-1.37-1.37Z"/><path class="cls-1" d="M38.76,34.41h-1V26.16l7.46-3.63,4.93-6.88L47.5,13.17,43.68,18.6l-7.5,2.7h-11A3.15,3.15,0,0,0,22,24.44v10h-1v-10a4.11,4.11,0,0,1,4.11-4.11H36.1l7-2.53,4.28-6.08,4.13,3.8L45.9,23.28l-7.14,3.47Z"/><rect class="cls-1" x="25.24" y="26.7" width="0.96" height="7.72"/><rect class="cls-1" x="16.31" y="33.93" width="30.34" height="0.96"/><rect class="cls-1" x="46.4" y="6.73" width="13.85" height="0.96"/><rect class="cls-1" x="46.4" y="9.68" width="13.85" height="0.96"/><rect class="cls-1" x="51.45" y="12.63" width="8.8" height="0.96"/><rect class="cls-1" x="52.83" y="15.58" width="7.42" height="0.96"/><rect class="cls-1" x="51.45" y="18.53" width="8.8" height="0.96"/><rect class="cls-1" x="49.79" y="21.48" width="10.46" height="0.96"/><rect class="cls-1" x="46.4" y="24.43" width="13.85" height="0.96"/><path class="cls-1" d="M17.35,50.07a5.2,5.2,0,1,1,5.2-5.2A5.2,5.2,0,0,1,17.35,50.07Zm0-9.43a4.24,4.24,0,1,0,4.24,4.24A4.24,4.24,0,0,0,17.35,40.64Z"/><path class="cls-1" d="M25.66,58.79h-1V55.22a3.78,3.78,0,0,0-3.78-3.78H13.79A3.78,3.78,0,0,0,10,55.22v3.56H9V55.22a4.75,4.75,0,0,1,4.74-4.74h7.13a4.75,4.75,0,0,1,4.74,4.74Z"/><path class="cls-1" d="M36.19,50.07a5.2,5.2,0,1,1,5.2-5.2A5.2,5.2,0,0,1,36.19,50.07Zm0-9.43a4.24,4.24,0,1,0,4.24,4.24A4.24,4.24,0,0,0,36.19,40.64Z"/><path class="cls-1" d="M44.49,58.79h-1V55.22a3.78,3.78,0,0,0-3.78-3.78H32.62a3.78,3.78,0,0,0-3.78,3.78v3.56h-1V55.22a4.75,4.75,0,0,1,4.74-4.74h7.13a4.75,4.75,0,0,1,4.74,4.74Z"/><path class="cls-1" d="M55,50.07a5.2,5.2,0,1,1,5.2-5.2A5.2,5.2,0,0,1,55,50.07Zm0-9.43a4.24,4.24,0,1,0,4.24,4.24A4.24,4.24,0,0,0,55,40.64Z"/><path class="cls-1" d="M63.33,58.79h-1V55.22a3.78,3.78,0,0,0-3.78-3.78H51.46a3.78,3.78,0,0,0-3.78,3.78v3.56h-1V55.22a4.75,4.75,0,0,1,4.74-4.74h7.13a4.75,4.75,0,0,1,4.74,4.74Z"/></svg>