<svg id="Calque_1" data-name="Calque 1" xmlns="http://www.w3.org/2000/svg" viewBox="0 0 72 60"><defs><style>.cls-1{fill:#f39b1f;}</style></defs><title>mobile</title><path class="cls-1" d="M27.44,51.13A.5.5,0,0,1,27,50.4c3.19-6-1.21-12.56-1.26-12.63a.5.5,0,0,1,.12-.69s3.62-2.6,4.3-3.19,3.89-6.28,2.34-8.74c-.25-.39-.62-.85-1-.85h0c-.68,0-1.52,1.34-2.13,2.32l-.46.72c-1.18,1.77-5.8,7-6,7.18-11,10.8-20.71,3.22-20.81,3.14a.5.5,0,0,1,.58-.81c1.29.83,4,1.26,7.14.33,2.78-.82,8-3.36,11.56-11.21,5.95-13,16.28-14.52,21.91-14.23,5.17.26,8.72,3.56,11.31,6,.38.35.73.68,1.06,1a1.83,1.83,0,0,0,1.58.57A3.13,3.13,0,0,0,59,17.8c-2-1.56-1.45-5.46-1.43-5.63a.5.5,0,0,1,.48-.43.51.51,0,0,1,.51.4c.22,1.05,2.18,2.16,3,2.52h1.83l2.71-1.17a.5.5,0,0,1,.69.4,3.68,3.68,0,0,1-1.59,3.62,7.06,7.06,0,0,1,1.26,2.15l3.88,2.23a.5.5,0,0,1,0,.87A11.66,11.66,0,0,1,63.52,24a.5.5,0,0,1-.19-.07h0s-.7-.27-2.07,1.14l-.42.46a8.88,8.88,0,0,1-6,3.17c-.62,2.75-2.06,6-5.38,6.89a.49.49,0,0,1-.48-.13l-1.26-1.29a.5.5,0,0,1,0-.72A7.72,7.72,0,0,0,49.89,29a62.64,62.64,0,0,1-6.5-.56,58.14,58.14,0,0,0-2.66,5.85c-.83,2.34-7.24,4.2-9.39,4.77,2.53,5.33-1,11.48-1.15,11.75a.5.5,0,0,1-.41.25l-2.31.09Zm-.61-13.52c.93,1.53,3.82,7,1.42,12.48l1.2,0c.62-1.2,3.21-6.68.72-11.09a.5.5,0,0,1,.32-.73c3.29-.8,8.72-2.67,9.3-4.29a61.21,61.21,0,0,1,2.88-6.29.5.5,0,0,1,.51-.26,60.39,60.39,0,0,0,7.27.6.5.5,0,0,1,.49.52,8.69,8.69,0,0,1-2.16,5.32l.71.72c2.76-.87,3.94-3.93,4.45-6.38a.5.5,0,0,1,.42-.39c3.61-.51,4.8-1.83,5.76-2.9l.44-.48c1.71-1.77,2.85-1.51,3.21-1.35a10.2,10.2,0,0,0,5.2-.78l-3.2-1.84a.5.5,0,0,1-.23-.28A5.36,5.36,0,0,0,64,17.82a.5.5,0,0,1,.1-.88,2.74,2.74,0,0,0,1.66-2.23l-2.13.92a.5.5,0,0,1-.2,0h-2a.51.51,0,0,1-.2,0,10,10,0,0,1-2.73-1.77c0,1.27.36,2.81,1.4,3.35a.5.5,0,0,1,.22.66c0,.08-1,2-2.64,2.38a2.8,2.8,0,0,1-2.44-.8c-.34-.3-.7-.63-1.08-1-2.48-2.3-5.87-5.45-10.68-5.7C37.88,12.47,28,13.88,22.31,26.39c-3.75,8.22-9.25,10.89-12.19,11.76a13.63,13.63,0,0,1-3.79.56h0c3.56,1.18,9.42,1.49,15.91-4.87,0,0,4.74-5.33,5.88-7l.45-.7c.82-1.31,1.75-2.79,3-2.79h0c.68,0,1.28.43,1.84,1.32,1.94,3.07-1.79,9.39-2.53,10C30.23,35.15,27.79,36.93,26.83,37.62Z"/><circle class="cls-1" cx="62.51" cy="19.45" r="0.73"/></svg>