<svg id="Calque_1" data-name="Calque 1" xmlns="http://www.w3.org/2000/svg" viewBox="0 0 72 60"><defs><style>.cls-1{fill:#f39b1f;}</style></defs><title>reseau</title><path class="cls-1" d="M36.23,35.2a4.5,4.5,0,1,1,4.5-4.5A4.5,4.5,0,0,1,36.23,35.2Zm0-8a3.53,3.53,0,1,0,3.53,3.53A3.53,3.53,0,0,0,36.23,27.18Z"/><path class="cls-1" d="M55.28,19.84a8.36,8.36,0,1,1,8.36-8.36A8.37,8.37,0,0,1,55.28,19.84Zm0-15.75a7.39,7.39,0,1,0,7.39,7.39A7.4,7.4,0,0,0,55.28,4.09Z"/><path class="cls-1" d="M17.31,46.07a8.89,8.89,0,1,1,8.89-8.89A8.91,8.91,0,0,1,17.31,46.07Zm0-16.82a7.92,7.92,0,1,0,7.92,7.92A7.93,7.93,0,0,0,17.31,29.25Z"/><path class="cls-1" d="M49.1,52.64a7.75,7.75,0,1,1,7.75-7.75A7.76,7.76,0,0,1,49.1,52.64Zm0-14.52a6.78,6.78,0,1,0,6.78,6.78A6.78,6.78,0,0,0,49.1,38.12Z"/><path class="cls-1" d="M61.14,36.48a4.21,4.21,0,1,1,4.21-4.21A4.22,4.22,0,0,1,61.14,36.48Zm0-7.46a3.24,3.24,0,1,0,3.24,3.24A3.25,3.25,0,0,0,61.14,29Z"/><rect class="cls-1" x="36.85" y="21.98" width="15.42" height="0.97" transform="translate(-2.83 38.09) rotate(-45)"/><rect class="cls-1" x="48.4" y="22.81" width="0.97" height="17.36" transform="translate(13.11 77.32) rotate(-84.81)"/><rect class="cls-1" x="41.02" y="32.67" width="0.97" height="7.86" transform="translate(-13.71 32.98) rotate(-37.66)"/><rect class="cls-1" x="23.03" y="42.08" width="17.4" height="0.97" transform="translate(-19.83 55.25) rotate(-67.12)"/><path class="cls-1" d="M27,58.18A4.21,4.21,0,1,1,31.21,54,4.22,4.22,0,0,1,27,58.18Zm0-7.46A3.24,3.24,0,1,0,30.24,54,3.25,3.25,0,0,0,27,50.72Z"/><rect class="cls-1" x="30.67" y="15.46" width="0.97" height="12.57" transform="translate(-6.69 18.41) rotate(-29.88)"/><path class="cls-1" d="M24.39,18.13a8.36,8.36,0,1,1,8.36-8.36A8.37,8.37,0,0,1,24.39,18.13Zm0-15.75a7.39,7.39,0,1,0,7.39,7.39A7.4,7.4,0,0,0,24.39,2.38Z"/><rect class="cls-1" x="24.78" y="32.84" width="7.88" height="0.97" transform="translate(-9.89 12.23) rotate(-20.6)"/></svg>