<svg id="Calque_1" data-name="Calque 1" xmlns="http://www.w3.org/2000/svg" viewBox="0 0 72 60"><defs><style>.cls-1{fill:#f39b1f;}</style></defs><title>stagiaire</title><path class="cls-1" d="M59.5,57.21H13.13A6.84,6.84,0,0,1,6.3,50.37V17.81A6.84,6.84,0,0,1,13.13,11H59.5a6.84,6.84,0,0,1,6.83,6.83V50.37A6.84,6.84,0,0,1,59.5,57.21ZM13.13,12.07a5.75,5.75,0,0,0-5.74,5.74V50.37a5.75,5.75,0,0,0,5.74,5.74H59.5a5.75,5.75,0,0,0,5.74-5.74V17.81a5.75,5.75,0,0,0-5.74-5.74Z"/><path class="cls-1" d="M40.24,40.54H32.39a2.8,2.8,0,0,1-2.8-2.8v-7.3a2.8,2.8,0,0,1,2.8-2.8h7.85a2.8,2.8,0,0,1,2.8,2.8v7.3A2.8,2.8,0,0,1,40.24,40.54Zm-7.85-11.8a1.71,1.71,0,0,0-1.71,1.71v7.3a1.71,1.71,0,0,0,1.71,1.71h7.85a1.71,1.71,0,0,0,1.71-1.71v-7.3a1.71,1.71,0,0,0-1.71-1.71Z"/><polygon class="cls-1" points="42.6 34.28 42.38 33.21 65.67 28.26 65.9 29.32 42.6 34.28"/><polygon class="cls-1" points="30.02 34.28 6.73 29.32 6.96 28.26 30.25 33.21 30.02 34.28"/><path class="cls-1" d="M46.58,11.63H45.49V7.46a1.2,1.2,0,0,0-1.2-1.2h-16a1.2,1.2,0,0,0-1.2,1.2v4.17H26V7.46a2.29,2.29,0,0,1,2.29-2.29h16a2.29,2.29,0,0,1,2.29,2.29Z"/><path class="cls-1" d="M49.56,11.63H48.47V6.2a2.89,2.89,0,0,0-2.89-2.89H27A2.89,2.89,0,0,0,24.15,6.2v5.42H23.06V6.2a4,4,0,0,1,4-4H45.58a4,4,0,0,1,4,4Z"/><path class="cls-1" d="M36.31,36.1a2,2,0,1,1,2-2A2,2,0,0,1,36.31,36.1Zm0-2.91a.91.91,0,1,0,.91.91A.91.91,0,0,0,36.31,33.18Z"/></svg>